<mxfile host="app.diagrams.net" modified="2023-05-11T06:40:08.424Z" agent="5.0 (Windows)" etag="dXGl1J5Su6GNKrCXQk7l" version="21.0.2" type="github">
  <diagram id="C5RBs43oDa-KdzZeNtuy" name="Page-1">
    <mxGraphModel dx="2514" dy="2056" grid="1" gridSize="10" guides="1" tooltips="1" connect="1" arrows="1" fold="1" page="1" pageScale="1" pageWidth="827" pageHeight="1169" math="0" shadow="0">
      <root>
        <mxCell id="WIyWlLk6GJQsqaUBKTNV-0" />
        <mxCell id="WIyWlLk6GJQsqaUBKTNV-1" parent="WIyWlLk6GJQsqaUBKTNV-0" />
        <mxCell id="JyJ8WFpUNzoB7Qr8mawW-6" value="GreenPro(ecms) Platform infra" style="text;html=1;strokeColor=none;fillColor=none;align=center;verticalAlign=middle;whiteSpace=wrap;rounded=0;fontStyle=1;fontSize=16;" vertex="1" parent="WIyWlLk6GJQsqaUBKTNV-1">
          <mxGeometry x="-300" y="-150" width="260" height="30" as="geometry" />
        </mxCell>
        <mxCell id="JyJ8WFpUNzoB7Qr8mawW-7" value="Developers" style="shape=umlActor;verticalLabelPosition=bottom;verticalAlign=top;html=1;outlineConnect=0;fontSize=12;" vertex="1" parent="WIyWlLk6GJQsqaUBKTNV-1">
          <mxGeometry x="-256" y="-100" width="30" height="60" as="geometry" />
        </mxCell>
        <mxCell id="JyJ8WFpUNzoB7Qr8mawW-9" value="ecms-infrastracture-eks" style="rounded=0;whiteSpace=wrap;html=1;align=right;" vertex="1" parent="WIyWlLk6GJQsqaUBKTNV-1">
          <mxGeometry x="-40" y="-90" width="210" height="40" as="geometry" />
        </mxCell>
        <mxCell id="JyJ8WFpUNzoB7Qr8mawW-11" value="" style="shape=image;html=1;verticalAlign=top;verticalLabelPosition=bottom;labelBackgroundColor=#ffffff;imageAspect=0;aspect=fixed;image=https://cdn1.iconfinder.com/data/icons/picons-social/57/github_rounded-128.png;fontSize=12;" vertex="1" parent="WIyWlLk6GJQsqaUBKTNV-1">
          <mxGeometry x="-40" y="-90" width="40" height="40" as="geometry" />
        </mxCell>
        <mxCell id="JyJ8WFpUNzoB7Qr8mawW-14" value="ecms-infrastructure-eks-ecms-prod" style="rounded=0;whiteSpace=wrap;html=1;align=right;" vertex="1" parent="WIyWlLk6GJQsqaUBKTNV-1">
          <mxGeometry x="306" y="-90" width="250" height="40" as="geometry" />
        </mxCell>
        <mxCell id="JyJ8WFpUNzoB7Qr8mawW-17" value="aws cloud" style="rounded=0;whiteSpace=wrap;html=1;align=right;" vertex="1" parent="WIyWlLk6GJQsqaUBKTNV-1">
          <mxGeometry x="750" y="-90" width="140" height="40" as="geometry" />
        </mxCell>
        <mxCell id="JyJ8WFpUNzoB7Qr8mawW-22" value="" style="shape=image;verticalLabelPosition=bottom;labelBackgroundColor=default;verticalAlign=top;aspect=fixed;imageAspect=0;image=data:image/png,iVBORw0KGgoAAAANSUhEUgAAAC0AAAArCAYAAADsQwGHAAAI0klEQVRYR81ZC3BU1Rn+9u4j2ezmQRICDUoXQ0IQqKRWKhjAIkpUpj5m2iidlkepdDoMmVG0Mx1q2+kw0+FhJ8Vpa6nSOLVWReqog6JWUgQUUEkLSEiIDI8IIcnC5rG72Wf//5w9u5fr7mYTo+FuZtgld8/9zne+//u/c2KKygsmkwnqioTpswaY6BWlF1/638dv/JLfKFxGfKZIOBI1aSb0XhrA+zvOorr268hxWhGJJMDyfIxf/JLxxodPBtwUDoejmqah1z2A39Q0ovBaOxYuvw6zFl8jvkiTEizzxHiA0WJdT5IpQpQyqD5ievOS/ejvCSLoD6Pi5iLcsbIMZVVF4v4wgdcION872uDj8mDQG76/l8BFYbZo8PYEoBHAqppSLFpVhsLxOQnmdeBHQ+txplkemx7Yh0AgLBjVzMQo6drrCSG30Iq5S1yYS3rPslviTItSHQG961fO+D4ZKVfIY2PtPgSDUgZsGuwcmsWEUCACf28IpeW5xPpkTJ9fImVCk2KtfxHJ6AuNS4Y9jMdMd6UEbaxatsCgPyIK9r5HpmLBsuvk5JLoPRPJXMEoTZ4B8+qK4qfPPHYqx0rNNH1ZPzAVLKxZZlzu8OOOZcT27WNx4JV23L26Ao48G99MD5MPHqxQ9YRwT+Aa4qu9tQfvPN2G+9ZORV5x9vBAqyVSIBhQT+cA7lxVgcp5hfjdvXsxcUYBFix1CYvUzJqwSBa6YkpZZHwiLAD6iTcwurffE0Djc6ew94UzCAeieHznfDjHZBEJLFU5oaSWx8u+sXYvQqxperhxafgzM+K56EfNT8px/XeK8eSKg7Bka/D3hDCpqgA1Py1HxU3FSV1Ggeel51rgsRjUwVfbBbtd7T7Y8yzIpkJ/+LnZVPyDMM0D9l8OYNOD5B4D3Exk29YD14O+86EKTL21CPU/+gCOMSQNup8Llb93w8Lx5O+TMXaiQ+o9FIGZSaAXA+b3fLUc6sJbW9vQ9rEbWTlm2AgsF7yFCv+xF6sF0yk1rTpiT7cf67+7B5YsTehSLJ+ukfCDFNNx0EsPwJEvW77UMuClyeeQxqtrJ2LeEooEubYrHn7xTB/+ve1TfLTzvJisPZcslBTFAPn7VquGR/95C5yFaUBzR2R7G6Au+NL6o2h6+4IAl+00C+DRaMKLjaD/QKBzCLR8IFe+BM/s+kgyJZMcuH1FGb65qBT+/iD2PH8a+146gz6amKPAKgIZF6/KagxFgH6BQKdjWqU8pbnj73fizT+34vQRD7FgFo7B4HlAi9UsNK2YToBOBCq1pJoZCPjC6O0O4Oc7qnG8sQsvbzhGE3GKBClWUhSlZJhXNWPQKnuo5eGqD4XCxMhZ/Icq+tJ5v2BTeSiDvmvVFKFpPWietLGbmYl1L2WZ1c/MItDd2PV0q7CyUJC77ueLPWPQCabl8ipj55l7On1499lTOPCvc8JVuOg85NOLVkr3qI9pOhb+4q6UAA8hkzUN3xag3/hLC/LGkpURy2pl9VY2JNDJWNJX+tlmD3aRZFoOuikNBnBPXSWmzC3EFgJtL+DGkjxvs1a9nuAVoPNLsoXm9V1TSYqTpM1mzkzT+tka22uE/TlmU//bfQHb1x/Dt2omYObicUIe9lzpHkaLlEwODtqYPWzkXmv/MYdWNSvpaohxWR6GhqNLcYkC4XtY732XB0RX9HT58OSPD6Fwgj3WTGLAZdKSG4c0oNWk2PdUD+AcHw5F8cvX51NzSdMRk4E2Mq9YZD9VBdlLvv7alhZ8+Ho7zGRT2U7224QTCODkEunkIViOhS4fychGTWb+D1y0cyoj25XhKWk0HQy0Ue9i70g/PW4/bGSH7vM+vLLpOE5+6BbArXYzosLf5cokAy3cgyTHK+HvC4nJVi36Gm4jTx/vcg4auJLKwygX/WfRlqn5NO0+j+2/PYZ7KKbesHAc/vvOBbzxx1Z0f+aDk4pTZQsGXffszcI9dj51AgXj7KKlc8wd6A/BRYGLM3rl7LExmVGRklWKkwDDKYHCMWTQKp01f9CJrWs+IvsCXN8owL1rKzGhIo9adBsa/35a7DPZIrmtr942C82Nbux6ppXasw191HCKrsnBrT90Yfb914pCZ+dgKfAWb7Bji2GBZl0f29eBvz3aRNnCKhoIT4bb9V2ry4Wlvfb7Ezi6p4O6YgRrX5yD47u7seOJT1DiclCMLcVttON35Mt8oa+VwbJ4SvdIJw8Gx6A/2X8R2x4+jCyHOXa8QEmRPDzbYcGC5ZMw70EX2pt78PyvjqD219PQ8p4brU3d+N4vpqF0cl5CCsPYJA+baQH6kcMCpDrY4f1kmDon65ij6eI1U0irRcLGgpRDuLGwxfFKiOOIYZ6ljAhoXl7OPjL4SBvjsOSnQqucXYwHHp+OMXQEIdo33af2lqkKLd1Kf3F5xJhmsMawJJikpHeZAtfKLTdixrxxAjS7Sia6TQd8ZJjW9VQBKHYCwP8EyEWWbazCVLI0fcENxuZXClo1I5GVtSg1jzCWb56JabdIplVHHVXQvL+TQD/fckXHI10v31yF6+eUjB5odgLOBUff60DDY01ij8f/pzKCvriuGtDi6JeKrO2wG3966BA0q0mGJS5GXURlYfORxVXBtL7y2z7uxptPtVJYuiQSmk2EJSUVmaevCtCqgJQM+MDlwKvnsLvhFDrPeOn4gPaTxH4kJD17wMuFOMqa1jOtP9ry9QXxbsOn2L/9LPh9Tr5NyINzyYonGPQouoeRaRl42MrkydFnJ3vx9taTONLYIQ8WSSJLN8wcWfdQRwjD8U1jF9SfgDbT+ckuAn9ifxd+9tebML16vHAZtSPJ9Hn6PaRyKHHUm2pbM5SB1RhyZyOZD5PeG+kIYuKMfJTfWCxOVNWKZDJ2MsDiOQp0JoMM5R55BCHO9bn1CEsczqVWMxCg2JvNKTHFbnw4g6f8DoNN/9eIjB5XX1+Puro6Cfpce0fU6cyBjc7peFZsYSN9yRY/tFEVw16vFw0NDVi3bh39ESsgBvk/YpMI2re+sjQAAAAASUVORK5CYII=;" vertex="1" parent="WIyWlLk6GJQsqaUBKTNV-1">
          <mxGeometry x="309" y="-86" width="33.49" height="32" as="geometry" />
        </mxCell>
        <mxCell id="JyJ8WFpUNzoB7Qr8mawW-23" value="" style="shape=image;verticalLabelPosition=bottom;labelBackgroundColor=default;verticalAlign=top;aspect=fixed;imageAspect=0;image=data:image/png,iVBORw0KGgoAAAANSUhEUgAAAFQAAAA6CAYAAAAulX7rAAANu0lEQVR4Xu1aCXBUVRY92Tv7AkkgkABCMAhhXyxADAbDIqBEWRyQsWBgBDKyKIWiM6YoQBgRp1hSCmOQRVEckFEChEVIGFSCIkKESBCyaEhCyEKW7qTTybz7fv/fvzfSv9NBZ6pfVSrV/7/l3nPPXd7tdlGr1c1wDoch4OIE1GFY8o2cgDoWTyegDsbTCagTUEcj4OD9nDHUCaiDEXDwdk6GOgF1MAIO3s7JUCegDkbAwds5hKHVNTVmYvn7+emfNbH/rg4W2/7tTGU1yGn/nvKVdgN6/rvvkXbkGE5lnkPWd9eMpPHy9cb4uAF4buZ0TBgbb/Ru34F/4/iXGXB1dUG/2N5YOG+OVU1Stqfi+x+y+dz4uFGYlvik1bnvbEnBlZzrUNdpsHjRPAwZNECaSyCmbEvF4aOnDbK6sZ6QzgVDB/XE6FHD8HTiZMQ+1KvVqCoAVGAaCTd11lxkfJWN0HaB8FZ5wsvTE/UNDey/h14gF/65oOQOZiU+ju1bNkqCrt+4Ces2f4CwoAAU5OQxBY9YVOTylatM2fGIiumKRp0ORbmFKL2dDUuMIuOOGjmFz6Uz9+/4h2RIejfp2XnwdPM0kpX2dHdz43KpNQ24nZePzP8cMjKEPegqBpQr+shURHQKRnl1LbRNOnQKCUZMdBQqK2vwU14B6rVNiAxrx+UpLL2DNSuTJCby9WOmITqyAyrv1iL51UWYM3smQE1EF4MKxOSXX1uPoABf/uJGcQlOHfjAosLE5Lc374CvtzdyL+Ux4C9w4PMLf0HMsPHsrI56Wcq4IUeNGIjQ9iG4cPEyzv2QC029lr9fu3IBliYttAdHaY0CQIU1AnPGIGnJXEyYMBaDB/QzY82pM2eROPsvDNT2fE3upWtQq/OkQ/sOe5yDRCweGNsTe3dtM1NiXtIyZJ69ILHeCHxptuA1456ajpv5JfypfL/lr/4NB9JOMaBV3Hj792y1aBDSadfuvYiPj8O4MY/dX0DpNHL7loK5nGG5hcXI/GKXpMzK5NX45EA6V1StqcWFs8fM9hNBF7RrZuBrObPk4UOUJSx0IKL7dmWg1WDDmhVSrI3uN5y5uR9q1WrMf34qVix7kS0hI9Bom0SpgKH3ytaikAZBS26XoWvvRxHdLQKlFRXYtO6vkqIGBrcDgZ11Yp8+jgpncFcdNBYRHULw3LSJSEs/xQDVIfdmEdSlP+oBEeZSjEx4Zi4PMfQ+78cMhIcKntGh52CEBYdwoBfNm6EH1BIBHVeJKABUuSd4h/VmgHbiCr2y7E9SHCWGRw+MY8oGG8dR/RFHT3yJZ+e9zD8d2LUZhw+n4/OjmTzhmIJP2X3Ltr08wXTrEo6jBz+RBBVDASXN0opyHD+4W5YA5SCaAmo/wAoAtX4IsVGj0UClUknsIK0EQCM4aHJA6d2sOQtx/vsrXPkhAx7CntQUCQgx9hUVl3PGZbCYTAmqQdcgY7ogz6MJiaioqjY5Q3hHYWf+ktWI6hjE9yYGz5o2Fn+Y/jRGPzLCAkPsB1LcTAGgtMRwILnath27sWfvMYBqOnd9TKqoRp/BMYgbOZSzikopS4Caxlh10WVJQQKp+HY5ZyQ9FyuDiPZBSHxiNN56cxWfS4aMGZoguLtR6DBgRYZLO/WNPkEKsbi08i40zFiz5z2NKZOfsJCI7AfWLkCTV6/H+k27ENUplNegFPSphKLh5SEAS3WfUPLAIqDyGCtPWvx5TBwvy6YnjsXa5Nd5Euw/fDwvi8h1i699y/cVYzGVQgF+Kpw/c9QC6wCqfZNf24jQrhH6WpTqZRdJ7vYBKqxJZslsivWLg8WNLTxUCKheuA3beW1HZU9VbQ2WvjAb/fr2gZeXF7+pZJ3/Fr+yulEseywxlGSx5K4iSP4sfGxYa1BSDBHE2pxzR9AlsjMHauv2j+Hh4WaSxc0zOBkq7Ug6jp/IwMFPTzNw28vApdIuH1vfe0OoiVsxFAFKTAl7YBiPizSCA/1x6MAuqyWUd0SsVMCbxlBaTwX5uo3/5IqJ9aMI0m0WF0XgaG7qrg+R/OZWVLNY/eG7b/GbECWdolvl3N3lZZkxHubuS3ocOX4SqTs/wpWfCpknUd+hmcfY0hvnWiwJ74W3IkAPp5/EzBeW85hFNyDKwObB3aCAtSwvCsRjY9wz3EDEELX6mlSkE/NF16b58jhKNeXC+XMQ1uVhRPfoyFxXg58vnbk3r/hNzBxc0YAEamFpmWQse0mqCFCRJRQbTWs+Q8FMorhKAIhXTEsMpZlCAS9cUclAdMMK8ffFmLiheG/T2+yNoYfQe0gCZzOVRyteehF/nL+cu7s8UQlA2J5UiK1RsaM4SSzfxpRBazegBMCxf71vtZkgvzqSoEsXzZLdkw0KU4Lbve8QvzWFtGP9gTsVZhcBUaUnp81GTm4Brxy6denIrpu37uEpVoAw6RnwJNhvtBSa5HFbGZTCbEWA8q7OpNn8cCo/TOtH2pAsvmrN3/HJwRNS0Ke5hixszB75TUfsjuQW3pIV8Aa1KOaueiuFXwjEkXsp16hPID4noCYmzsLyZQsw/vF4q3Hxzy++hBOns7hBzb1OOaSKAKXthzwyDndrNJwlFLtIkJnTJ/GTL2fnYP+hDN7WI1eMfiCCNy1o7o3iUnyxJ8Us5spvTaL4tO/Fr46YgSA3KM21dr/nsvAmzpMIjAxAVaUaQ/s/iAnj4uDp6c6PKfq1GFt2fgaqbUkH8rjFc6cj+fUVylGUrVAMqJhI6J5NdSENqkPFodXq+I2GrnkB/v6I6fkYIqLDeT/z8LEPLd5QKDykn/yGM5p6kyOG9LHYgRKrDKp/aZj2PuVIiHMNPVuBACQfGZsGAUlGsdS3tRdVxYDSQdS8eO2NtZyNdEPycmeCaep4tia2UgYWu1F0I/rsYBpWvrLUakecjLR23Ttwc3eHrrERyxYvsBqb6e6elXWRz/X2UWHjulVW3Zncfv/Bz/F5WjpviJOsKi+xCQ5oauuREDcIC+Y/3+q2nWgAGwA17ySJi4kFeQWF0DDLR0VFIrw96/JITWLbM629bFCyTpS17E45X+bn44OYB6NbVXNaOt8GQJWILZ9rL6D2rrNXTnGdaZ/U0ueWe6gKAZWzlQRp+YDWqtm69fffOAoBbZ16ileb1IyK17e4oJ7NoITaiGZtNVw8/PUrfNh/lV2EsQFQsrLGwgH33/ot4tPiBJJZy8ArQl3B12gsuYTaWz+wGyn7xlZdgkY3bzSqWNMk8AF4dhsB3+4zFINqA6D1qDixDKpe4+Ddib5jJ+v9r44ylF14D67Ze+FW9zN8ZBFLX0lxxVhlhTqGfeALdxTrawOgWhTtnwzf26fR0PkpBI1cAI+gwVYO+p2x1ihkNKEwcz38rm9Bs3sw6r3D4dNpiMSMhvJ8uJdmIrhZqAK0LBp4LGwTQFljS3sTlRkb4Ho9lR/W1GMO/AZPZ8D2ZZ8CFLvFb8NvMnY1d3lWkLI/T/YnFPjC0EFb+S3qPh6LQFaqEks95rcRoMKBlcxdtsIjazV3FXIJYqxf/6lQhQ9gAT1SL+hvA5fyUymW/gJNaTZUYX2Y/N3YFmWoSO3HWVrh2xXBMy6yZ16KtrbB5cX9hICu/vUYqk+vQnBtNijukCUrfPtA1XMiVA9OgGdATzaPsuXvsaRqZHLVMCZeQt2Vw9BdP8RjaXWPJHQes5Ypk4eq9/tyhlb1WozA4eyZQj0UAGoAtlmbL4UAOpyGGMjr2g2Hz0NT4B05jIFLVqdvHIWGxL2Hkvhr61yaR3+VDMQrqLpxBk1XD8KrOltKSNWq7vCfnMLC10jU5OyAV2YS9z7PSftYEhaaPkqGHYCK29cxtp40Yqv4RgS33p99z9QtHp5RQ+EdHsuCErXdiL1khbZgsFji1TELV6C24Dwabp6FtiRLAlHM5lUslFIuCH50CROnO/c+qmb8bqSiLHg4Ok6l7/eFH0woGa0AlI5pYnEoH3evpUH33bvw1/zMw4B8iODSM2KvKjgGrh17wTOoC9z8O8DDuz2LXyF6kGkxAS371ZhFbVicYUmERrO2BFp1GXTVxWiozEfTratGANIc05KIAAsavsS4DNTmomJ3HPway9EQ/z6rQaexlbZ4lrGArQBU7nYsNrFK4O7Fj9B49VOLwMrZy8Fly5s8Q3gJIy+odSHCF4AeXoFmUGrrq/gzt3L2k5yqG1JB7tJYAdeGcsmNTY1Ka4iRZNCAgXMZWAnsCRlR9JJG5u47oTudxBNt6MTN7J1ydtI5rQCUlougind8JrW2AFXX0lF/caeZm1kkm+whsdnWYQk007Wid4jViHfnUSZAiiuqWK09A+6aMgRNSmGxn+pTuW62h6dWAmpNfcqmlSzGfo2G/LNSNqVyyxYgbAXVEoAi+4mNHt0fQ0CPBH3lYc54w/oqVvSnILz/GDZ3EIsjTNCWoo4VIdsIUPlphnpPW3QBtXmZUFXnGLkod3GT2NsSqHI2U/jQ+XSHLiSW38HtqzDoRNuZaE2++wCoMbgskrGwUMp+lpgjJRFNRQ5UuiK4VuYJcZAIbmmwHFHjHgKtVwRvYvhFPQxX/87w6hANd99IltzC2SqTLlGbd6yMBW0DQG2tEUVBCD0Knhro2NcoLQ03FTVnqOwiSrdV+dWSFNbftwGg9gvz/7DSCaiDregE1AmogxFw8HZOhjoBdTACDt7OyVAHA/pfP1TqPdV3lbIAAAAASUVORK5CYII=;" vertex="1" parent="WIyWlLk6GJQsqaUBKTNV-1">
          <mxGeometry x="753" y="-85" width="43.45" height="30" as="geometry" />
        </mxCell>
        <mxCell id="JyJ8WFpUNzoB7Qr8mawW-25" value="commit to &quot;master&quot;" style="endArrow=classic;html=1;fontSize=12;entryX=0;entryY=0.5;entryDx=0;entryDy=0;exitX=0.5;exitY=0.5;exitDx=0;exitDy=0;exitPerimeter=0;" edge="1" parent="WIyWlLk6GJQsqaUBKTNV-1" source="JyJ8WFpUNzoB7Qr8mawW-7" target="JyJ8WFpUNzoB7Qr8mawW-11">
          <mxGeometry width="50" height="50" relative="1" as="geometry">
            <mxPoint x="-320" y="100" as="sourcePoint" />
            <mxPoint x="-120" y="100" as="targetPoint" />
          </mxGeometry>
        </mxCell>
        <mxCell id="JyJ8WFpUNzoB7Qr8mawW-26" value="triggers terraform" style="edgeStyle=orthogonalEdgeStyle;rounded=0;orthogonalLoop=1;jettySize=auto;html=1;exitX=1;exitY=0.5;exitDx=0;exitDy=0;fontSize=12;entryX=0;entryY=0.5;entryDx=0;entryDy=0;" edge="1" parent="WIyWlLk6GJQsqaUBKTNV-1" source="JyJ8WFpUNzoB7Qr8mawW-9" target="JyJ8WFpUNzoB7Qr8mawW-14">
          <mxGeometry relative="1" as="geometry">
            <mxPoint x="120" y="100" as="sourcePoint" />
            <mxPoint x="280" y="-70" as="targetPoint" />
          </mxGeometry>
        </mxCell>
        <mxCell id="JyJ8WFpUNzoB7Qr8mawW-27" value="build platform infrastructure" style="edgeStyle=orthogonalEdgeStyle;rounded=0;orthogonalLoop=1;jettySize=auto;html=1;entryX=0;entryY=0.5;entryDx=0;entryDy=0;fontSize=12;exitX=1;exitY=0.5;exitDx=0;exitDy=0;" edge="1" parent="WIyWlLk6GJQsqaUBKTNV-1" source="JyJ8WFpUNzoB7Qr8mawW-14" target="JyJ8WFpUNzoB7Qr8mawW-17">
          <mxGeometry relative="1" as="geometry">
            <mxPoint x="560" y="-20" as="sourcePoint" />
            <mxPoint x="830" y="100" as="targetPoint" />
          </mxGeometry>
        </mxCell>
        <mxCell id="JyJ8WFpUNzoB7Qr8mawW-29" value="ecms-infrastracture-eks" style="rounded=0;whiteSpace=wrap;html=1;align=right;" vertex="1" parent="WIyWlLk6GJQsqaUBKTNV-1">
          <mxGeometry x="-40" y="22" width="210" height="40" as="geometry" />
        </mxCell>
        <mxCell id="JyJ8WFpUNzoB7Qr8mawW-30" value="" style="shape=image;html=1;verticalAlign=top;verticalLabelPosition=bottom;labelBackgroundColor=#ffffff;imageAspect=0;aspect=fixed;image=https://cdn1.iconfinder.com/data/icons/picons-social/57/github_rounded-128.png;fontSize=12;" vertex="1" parent="WIyWlLk6GJQsqaUBKTNV-1">
          <mxGeometry x="-40" y="22" width="40" height="40" as="geometry" />
        </mxCell>
        <mxCell id="JyJ8WFpUNzoB7Qr8mawW-31" value="ecms-infrastructure-eks-ecms-prod" style="rounded=0;whiteSpace=wrap;html=1;align=right;" vertex="1" parent="WIyWlLk6GJQsqaUBKTNV-1">
          <mxGeometry x="306" y="22" width="250" height="40" as="geometry" />
        </mxCell>
        <mxCell id="JyJ8WFpUNzoB7Qr8mawW-32" value="aws cloud" style="rounded=0;whiteSpace=wrap;html=1;align=right;" vertex="1" parent="WIyWlLk6GJQsqaUBKTNV-1">
          <mxGeometry x="750" y="22" width="140" height="40" as="geometry" />
        </mxCell>
        <mxCell id="JyJ8WFpUNzoB7Qr8mawW-33" value="" style="shape=image;verticalLabelPosition=bottom;labelBackgroundColor=default;verticalAlign=top;aspect=fixed;imageAspect=0;image=data:image/png,iVBORw0KGgoAAAANSUhEUgAAAC0AAAArCAYAAADsQwGHAAAI0klEQVRYR81ZC3BU1Rn+9u4j2ezmQRICDUoXQ0IQqKRWKhjAIkpUpj5m2iidlkepdDoMmVG0Mx1q2+kw0+FhJ8Vpa6nSOLVWReqog6JWUgQUUEkLSEiIDI8IIcnC5rG72Wf//5w9u5fr7mYTo+FuZtgld8/9zne+//u/c2KKygsmkwnqioTpswaY6BWlF1/638dv/JLfKFxGfKZIOBI1aSb0XhrA+zvOorr268hxWhGJJMDyfIxf/JLxxodPBtwUDoejmqah1z2A39Q0ovBaOxYuvw6zFl8jvkiTEizzxHiA0WJdT5IpQpQyqD5ievOS/ejvCSLoD6Pi5iLcsbIMZVVF4v4wgdcION872uDj8mDQG76/l8BFYbZo8PYEoBHAqppSLFpVhsLxOQnmdeBHQ+txplkemx7Yh0AgLBjVzMQo6drrCSG30Iq5S1yYS3rPslviTItSHQG961fO+D4ZKVfIY2PtPgSDUgZsGuwcmsWEUCACf28IpeW5xPpkTJ9fImVCk2KtfxHJ6AuNS4Y9jMdMd6UEbaxatsCgPyIK9r5HpmLBsuvk5JLoPRPJXMEoTZ4B8+qK4qfPPHYqx0rNNH1ZPzAVLKxZZlzu8OOOZcT27WNx4JV23L26Ao48G99MD5MPHqxQ9YRwT+Aa4qu9tQfvPN2G+9ZORV5x9vBAqyVSIBhQT+cA7lxVgcp5hfjdvXsxcUYBFix1CYvUzJqwSBa6YkpZZHwiLAD6iTcwurffE0Djc6ew94UzCAeieHznfDjHZBEJLFU5oaSWx8u+sXYvQqxperhxafgzM+K56EfNT8px/XeK8eSKg7Bka/D3hDCpqgA1Py1HxU3FSV1Ggeel51rgsRjUwVfbBbtd7T7Y8yzIpkJ/+LnZVPyDMM0D9l8OYNOD5B4D3Exk29YD14O+86EKTL21CPU/+gCOMSQNup8Llb93w8Lx5O+TMXaiQ+o9FIGZSaAXA+b3fLUc6sJbW9vQ9rEbWTlm2AgsF7yFCv+xF6sF0yk1rTpiT7cf67+7B5YsTehSLJ+ukfCDFNNx0EsPwJEvW77UMuClyeeQxqtrJ2LeEooEubYrHn7xTB/+ve1TfLTzvJisPZcslBTFAPn7VquGR/95C5yFaUBzR2R7G6Au+NL6o2h6+4IAl+00C+DRaMKLjaD/QKBzCLR8IFe+BM/s+kgyJZMcuH1FGb65qBT+/iD2PH8a+146gz6amKPAKgIZF6/KagxFgH6BQKdjWqU8pbnj73fizT+34vQRD7FgFo7B4HlAi9UsNK2YToBOBCq1pJoZCPjC6O0O4Oc7qnG8sQsvbzhGE3GKBClWUhSlZJhXNWPQKnuo5eGqD4XCxMhZ/Icq+tJ5v2BTeSiDvmvVFKFpPWietLGbmYl1L2WZ1c/MItDd2PV0q7CyUJC77ueLPWPQCabl8ipj55l7On1499lTOPCvc8JVuOg85NOLVkr3qI9pOhb+4q6UAA8hkzUN3xag3/hLC/LGkpURy2pl9VY2JNDJWNJX+tlmD3aRZFoOuikNBnBPXSWmzC3EFgJtL+DGkjxvs1a9nuAVoPNLsoXm9V1TSYqTpM1mzkzT+tka22uE/TlmU//bfQHb1x/Dt2omYObicUIe9lzpHkaLlEwODtqYPWzkXmv/MYdWNSvpaohxWR6GhqNLcYkC4XtY732XB0RX9HT58OSPD6Fwgj3WTGLAZdKSG4c0oNWk2PdUD+AcHw5F8cvX51NzSdMRk4E2Mq9YZD9VBdlLvv7alhZ8+Ho7zGRT2U7224QTCODkEunkIViOhS4fychGTWb+D1y0cyoj25XhKWk0HQy0Ue9i70g/PW4/bGSH7vM+vLLpOE5+6BbArXYzosLf5cokAy3cgyTHK+HvC4nJVi36Gm4jTx/vcg4auJLKwygX/WfRlqn5NO0+j+2/PYZ7KKbesHAc/vvOBbzxx1Z0f+aDk4pTZQsGXffszcI9dj51AgXj7KKlc8wd6A/BRYGLM3rl7LExmVGRklWKkwDDKYHCMWTQKp01f9CJrWs+IvsCXN8owL1rKzGhIo9adBsa/35a7DPZIrmtr942C82Nbux6ppXasw191HCKrsnBrT90Yfb914pCZ+dgKfAWb7Bji2GBZl0f29eBvz3aRNnCKhoIT4bb9V2ry4Wlvfb7Ezi6p4O6YgRrX5yD47u7seOJT1DiclCMLcVttON35Mt8oa+VwbJ4SvdIJw8Gx6A/2X8R2x4+jCyHOXa8QEmRPDzbYcGC5ZMw70EX2pt78PyvjqD219PQ8p4brU3d+N4vpqF0cl5CCsPYJA+baQH6kcMCpDrY4f1kmDon65ij6eI1U0irRcLGgpRDuLGwxfFKiOOIYZ6ljAhoXl7OPjL4SBvjsOSnQqucXYwHHp+OMXQEIdo33af2lqkKLd1Kf3F5xJhmsMawJJikpHeZAtfKLTdixrxxAjS7Sia6TQd8ZJjW9VQBKHYCwP8EyEWWbazCVLI0fcENxuZXClo1I5GVtSg1jzCWb56JabdIplVHHVXQvL+TQD/fckXHI10v31yF6+eUjB5odgLOBUff60DDY01ij8f/pzKCvriuGtDi6JeKrO2wG3966BA0q0mGJS5GXURlYfORxVXBtL7y2z7uxptPtVJYuiQSmk2EJSUVmaevCtCqgJQM+MDlwKvnsLvhFDrPeOn4gPaTxH4kJD17wMuFOMqa1jOtP9ry9QXxbsOn2L/9LPh9Tr5NyINzyYonGPQouoeRaRl42MrkydFnJ3vx9taTONLYIQ8WSSJLN8wcWfdQRwjD8U1jF9SfgDbT+ckuAn9ifxd+9tebML16vHAZtSPJ9Hn6PaRyKHHUm2pbM5SB1RhyZyOZD5PeG+kIYuKMfJTfWCxOVNWKZDJ2MsDiOQp0JoMM5R55BCHO9bn1CEsczqVWMxCg2JvNKTHFbnw4g6f8DoNN/9eIjB5XX1+Puro6Cfpce0fU6cyBjc7peFZsYSN9yRY/tFEVw16vFw0NDVi3bh39ESsgBvk/YpMI2re+sjQAAAAASUVORK5CYII=;" vertex="1" parent="WIyWlLk6GJQsqaUBKTNV-1">
          <mxGeometry x="309" y="26" width="33.49" height="32" as="geometry" />
        </mxCell>
        <mxCell id="JyJ8WFpUNzoB7Qr8mawW-34" value="" style="shape=image;verticalLabelPosition=bottom;labelBackgroundColor=default;verticalAlign=top;aspect=fixed;imageAspect=0;image=data:image/png,iVBORw0KGgoAAAANSUhEUgAAAFQAAAA6CAYAAAAulX7rAAANu0lEQVR4Xu1aCXBUVRY92Tv7AkkgkABCMAhhXyxADAbDIqBEWRyQsWBgBDKyKIWiM6YoQBgRp1hSCmOQRVEckFEChEVIGFSCIkKESBCyaEhCyEKW7qTTybz7fv/fvzfSv9NBZ6pfVSrV/7/l3nPPXd7tdlGr1c1wDoch4OIE1GFY8o2cgDoWTyegDsbTCagTUEcj4OD9nDHUCaiDEXDwdk6GOgF1MAIO3s7JUCegDkbAwds5hKHVNTVmYvn7+emfNbH/rg4W2/7tTGU1yGn/nvKVdgN6/rvvkXbkGE5lnkPWd9eMpPHy9cb4uAF4buZ0TBgbb/Ru34F/4/iXGXB1dUG/2N5YOG+OVU1Stqfi+x+y+dz4uFGYlvik1bnvbEnBlZzrUNdpsHjRPAwZNECaSyCmbEvF4aOnDbK6sZ6QzgVDB/XE6FHD8HTiZMQ+1KvVqCoAVGAaCTd11lxkfJWN0HaB8FZ5wsvTE/UNDey/h14gF/65oOQOZiU+ju1bNkqCrt+4Ces2f4CwoAAU5OQxBY9YVOTylatM2fGIiumKRp0ORbmFKL2dDUuMIuOOGjmFz6Uz9+/4h2RIejfp2XnwdPM0kpX2dHdz43KpNQ24nZePzP8cMjKEPegqBpQr+shURHQKRnl1LbRNOnQKCUZMdBQqK2vwU14B6rVNiAxrx+UpLL2DNSuTJCby9WOmITqyAyrv1iL51UWYM3smQE1EF4MKxOSXX1uPoABf/uJGcQlOHfjAosLE5Lc374CvtzdyL+Ux4C9w4PMLf0HMsPHsrI56Wcq4IUeNGIjQ9iG4cPEyzv2QC029lr9fu3IBliYttAdHaY0CQIU1AnPGIGnJXEyYMBaDB/QzY82pM2eROPsvDNT2fE3upWtQq/OkQ/sOe5yDRCweGNsTe3dtM1NiXtIyZJ69ILHeCHxptuA1456ajpv5JfypfL/lr/4NB9JOMaBV3Hj792y1aBDSadfuvYiPj8O4MY/dX0DpNHL7loK5nGG5hcXI/GKXpMzK5NX45EA6V1StqcWFs8fM9hNBF7RrZuBrObPk4UOUJSx0IKL7dmWg1WDDmhVSrI3uN5y5uR9q1WrMf34qVix7kS0hI9Bom0SpgKH3ytaikAZBS26XoWvvRxHdLQKlFRXYtO6vkqIGBrcDgZ11Yp8+jgpncFcdNBYRHULw3LSJSEs/xQDVIfdmEdSlP+oBEeZSjEx4Zi4PMfQ+78cMhIcKntGh52CEBYdwoBfNm6EH1BIBHVeJKABUuSd4h/VmgHbiCr2y7E9SHCWGRw+MY8oGG8dR/RFHT3yJZ+e9zD8d2LUZhw+n4/OjmTzhmIJP2X3Ltr08wXTrEo6jBz+RBBVDASXN0opyHD+4W5YA5SCaAmo/wAoAtX4IsVGj0UClUknsIK0EQCM4aHJA6d2sOQtx/vsrXPkhAx7CntQUCQgx9hUVl3PGZbCYTAmqQdcgY7ogz6MJiaioqjY5Q3hHYWf+ktWI6hjE9yYGz5o2Fn+Y/jRGPzLCAkPsB1LcTAGgtMRwILnath27sWfvMYBqOnd9TKqoRp/BMYgbOZSzikopS4Caxlh10WVJQQKp+HY5ZyQ9FyuDiPZBSHxiNN56cxWfS4aMGZoguLtR6DBgRYZLO/WNPkEKsbi08i40zFiz5z2NKZOfsJCI7AfWLkCTV6/H+k27ENUplNegFPSphKLh5SEAS3WfUPLAIqDyGCtPWvx5TBwvy6YnjsXa5Nd5Euw/fDwvi8h1i699y/cVYzGVQgF+Kpw/c9QC6wCqfZNf24jQrhH6WpTqZRdJ7vYBKqxJZslsivWLg8WNLTxUCKheuA3beW1HZU9VbQ2WvjAb/fr2gZeXF7+pZJ3/Fr+yulEseywxlGSx5K4iSP4sfGxYa1BSDBHE2pxzR9AlsjMHauv2j+Hh4WaSxc0zOBkq7Ug6jp/IwMFPTzNw28vApdIuH1vfe0OoiVsxFAFKTAl7YBiPizSCA/1x6MAuqyWUd0SsVMCbxlBaTwX5uo3/5IqJ9aMI0m0WF0XgaG7qrg+R/OZWVLNY/eG7b/GbECWdolvl3N3lZZkxHubuS3ocOX4SqTs/wpWfCpknUd+hmcfY0hvnWiwJ74W3IkAPp5/EzBeW85hFNyDKwObB3aCAtSwvCsRjY9wz3EDEELX6mlSkE/NF16b58jhKNeXC+XMQ1uVhRPfoyFxXg58vnbk3r/hNzBxc0YAEamFpmWQse0mqCFCRJRQbTWs+Q8FMorhKAIhXTEsMpZlCAS9cUclAdMMK8ffFmLiheG/T2+yNoYfQe0gCZzOVRyteehF/nL+cu7s8UQlA2J5UiK1RsaM4SSzfxpRBazegBMCxf71vtZkgvzqSoEsXzZLdkw0KU4Lbve8QvzWFtGP9gTsVZhcBUaUnp81GTm4Brxy6denIrpu37uEpVoAw6RnwJNhvtBSa5HFbGZTCbEWA8q7OpNn8cCo/TOtH2pAsvmrN3/HJwRNS0Ke5hixszB75TUfsjuQW3pIV8Aa1KOaueiuFXwjEkXsp16hPID4noCYmzsLyZQsw/vF4q3Hxzy++hBOns7hBzb1OOaSKAKXthzwyDndrNJwlFLtIkJnTJ/GTL2fnYP+hDN7WI1eMfiCCNy1o7o3iUnyxJ8Us5spvTaL4tO/Fr46YgSA3KM21dr/nsvAmzpMIjAxAVaUaQ/s/iAnj4uDp6c6PKfq1GFt2fgaqbUkH8rjFc6cj+fUVylGUrVAMqJhI6J5NdSENqkPFodXq+I2GrnkB/v6I6fkYIqLDeT/z8LEPLd5QKDykn/yGM5p6kyOG9LHYgRKrDKp/aZj2PuVIiHMNPVuBACQfGZsGAUlGsdS3tRdVxYDSQdS8eO2NtZyNdEPycmeCaep4tia2UgYWu1F0I/rsYBpWvrLUakecjLR23Ttwc3eHrrERyxYvsBqb6e6elXWRz/X2UWHjulVW3Zncfv/Bz/F5WjpviJOsKi+xCQ5oauuREDcIC+Y/3+q2nWgAGwA17ySJi4kFeQWF0DDLR0VFIrw96/JITWLbM629bFCyTpS17E45X+bn44OYB6NbVXNaOt8GQJWILZ9rL6D2rrNXTnGdaZ/U0ueWe6gKAZWzlQRp+YDWqtm69fffOAoBbZ16ileb1IyK17e4oJ7NoITaiGZtNVw8/PUrfNh/lV2EsQFQsrLGwgH33/ot4tPiBJJZy8ArQl3B12gsuYTaWz+wGyn7xlZdgkY3bzSqWNMk8AF4dhsB3+4zFINqA6D1qDixDKpe4+Ddib5jJ+v9r44ylF14D67Ze+FW9zN8ZBFLX0lxxVhlhTqGfeALdxTrawOgWhTtnwzf26fR0PkpBI1cAI+gwVYO+p2x1ihkNKEwcz38rm9Bs3sw6r3D4dNpiMSMhvJ8uJdmIrhZqAK0LBp4LGwTQFljS3sTlRkb4Ho9lR/W1GMO/AZPZ8D2ZZ8CFLvFb8NvMnY1d3lWkLI/T/YnFPjC0EFb+S3qPh6LQFaqEks95rcRoMKBlcxdtsIjazV3FXIJYqxf/6lQhQ9gAT1SL+hvA5fyUymW/gJNaTZUYX2Y/N3YFmWoSO3HWVrh2xXBMy6yZ16KtrbB5cX9hICu/vUYqk+vQnBtNijukCUrfPtA1XMiVA9OgGdATzaPsuXvsaRqZHLVMCZeQt2Vw9BdP8RjaXWPJHQes5Ypk4eq9/tyhlb1WozA4eyZQj0UAGoAtlmbL4UAOpyGGMjr2g2Hz0NT4B05jIFLVqdvHIWGxL2Hkvhr61yaR3+VDMQrqLpxBk1XD8KrOltKSNWq7vCfnMLC10jU5OyAV2YS9z7PSftYEhaaPkqGHYCK29cxtp40Yqv4RgS33p99z9QtHp5RQ+EdHsuCErXdiL1khbZgsFji1TELV6C24Dwabp6FtiRLAlHM5lUslFIuCH50CROnO/c+qmb8bqSiLHg4Ok6l7/eFH0woGa0AlI5pYnEoH3evpUH33bvw1/zMw4B8iODSM2KvKjgGrh17wTOoC9z8O8DDuz2LXyF6kGkxAS371ZhFbVicYUmERrO2BFp1GXTVxWiozEfTratGANIc05KIAAsavsS4DNTmomJ3HPway9EQ/z6rQaexlbZ4lrGArQBU7nYsNrFK4O7Fj9B49VOLwMrZy8Fly5s8Q3gJIy+odSHCF4AeXoFmUGrrq/gzt3L2k5yqG1JB7tJYAdeGcsmNTY1Ka4iRZNCAgXMZWAnsCRlR9JJG5u47oTudxBNt6MTN7J1ydtI5rQCUlougind8JrW2AFXX0lF/caeZm1kkm+whsdnWYQk007Wid4jViHfnUSZAiiuqWK09A+6aMgRNSmGxn+pTuW62h6dWAmpNfcqmlSzGfo2G/LNSNqVyyxYgbAXVEoAi+4mNHt0fQ0CPBH3lYc54w/oqVvSnILz/GDZ3EIsjTNCWoo4VIdsIUPlphnpPW3QBtXmZUFXnGLkod3GT2NsSqHI2U/jQ+XSHLiSW38HtqzDoRNuZaE2++wCoMbgskrGwUMp+lpgjJRFNRQ5UuiK4VuYJcZAIbmmwHFHjHgKtVwRvYvhFPQxX/87w6hANd99IltzC2SqTLlGbd6yMBW0DQG2tEUVBCD0Knhro2NcoLQ03FTVnqOwiSrdV+dWSFNbftwGg9gvz/7DSCaiDregE1AmogxFw8HZOhjoBdTACDt7OyVAHA/pfP1TqPdV3lbIAAAAASUVORK5CYII=;" vertex="1" parent="WIyWlLk6GJQsqaUBKTNV-1">
          <mxGeometry x="753" y="27" width="43.45" height="30" as="geometry" />
        </mxCell>
        <mxCell id="JyJ8WFpUNzoB7Qr8mawW-35" value="triggers terraform" style="edgeStyle=orthogonalEdgeStyle;rounded=0;orthogonalLoop=1;jettySize=auto;html=1;exitX=1;exitY=0.5;exitDx=0;exitDy=0;fontSize=12;entryX=0;entryY=0.5;entryDx=0;entryDy=0;" edge="1" parent="WIyWlLk6GJQsqaUBKTNV-1" source="JyJ8WFpUNzoB7Qr8mawW-29" target="JyJ8WFpUNzoB7Qr8mawW-31">
          <mxGeometry relative="1" as="geometry">
            <mxPoint x="120" y="212" as="sourcePoint" />
            <mxPoint x="280" y="42" as="targetPoint" />
          </mxGeometry>
        </mxCell>
        <mxCell id="JyJ8WFpUNzoB7Qr8mawW-36" value="build platform infrastructure" style="edgeStyle=orthogonalEdgeStyle;rounded=0;orthogonalLoop=1;jettySize=auto;html=1;entryX=0;entryY=0.5;entryDx=0;entryDy=0;fontSize=12;exitX=1;exitY=0.5;exitDx=0;exitDy=0;" edge="1" parent="WIyWlLk6GJQsqaUBKTNV-1" source="JyJ8WFpUNzoB7Qr8mawW-31" target="JyJ8WFpUNzoB7Qr8mawW-32">
          <mxGeometry relative="1" as="geometry">
            <mxPoint x="560" y="92" as="sourcePoint" />
            <mxPoint x="830" y="212" as="targetPoint" />
          </mxGeometry>
        </mxCell>
        <mxCell id="JyJ8WFpUNzoB7Qr8mawW-37" value="merge master to branch &quot;prod&quot; after testing" style="edgeStyle=orthogonalEdgeStyle;rounded=0;orthogonalLoop=1;jettySize=auto;html=1;exitX=0.5;exitY=1;exitDx=0;exitDy=0;" edge="1" parent="WIyWlLk6GJQsqaUBKTNV-1" source="JyJ8WFpUNzoB7Qr8mawW-9">
          <mxGeometry relative="1" as="geometry">
            <mxPoint y="120" as="sourcePoint" />
            <mxPoint x="65" y="20" as="targetPoint" />
          </mxGeometry>
        </mxCell>
        <mxCell id="JyJ8WFpUNzoB7Qr8mawW-86" value="Developers" style="shape=umlActor;verticalLabelPosition=bottom;verticalAlign=top;html=1;outlineConnect=0;fontSize=12;" vertex="1" parent="WIyWlLk6GJQsqaUBKTNV-1">
          <mxGeometry x="-256" y="140" width="30" height="60" as="geometry" />
        </mxCell>
        <mxCell id="JyJ8WFpUNzoB7Qr8mawW-87" value="" style="group" vertex="1" connectable="0" parent="WIyWlLk6GJQsqaUBKTNV-1">
          <mxGeometry x="-40" y="150" width="210" height="40" as="geometry" />
        </mxCell>
        <mxCell id="JyJ8WFpUNzoB7Qr8mawW-88" value="local ---ecms-aws-cluster" style="rounded=0;whiteSpace=wrap;html=1;fontSize=12;align=right;" vertex="1" parent="JyJ8WFpUNzoB7Qr8mawW-87">
          <mxGeometry width="210" height="40" as="geometry" />
        </mxCell>
        <mxCell id="JyJ8WFpUNzoB7Qr8mawW-91" value="" style="shape=image;verticalLabelPosition=bottom;labelBackgroundColor=default;verticalAlign=top;aspect=fixed;imageAspect=0;image=data:image/png,iVBORw0KGgoAAAANSUhEUgAAAFcAAABUCAYAAAD3XKvCAAAcG0lEQVR4Xu1dCZhcVZn936vqNb2nlyQkaUhCWAMIDouifs7nMCOi6KijICgyIhCDgEJcMLIIIsPiAiMMI7hGZQZEQHEZGQfkk6CyGIJAFpPO2vu+d9V7c85/3339ulLVXVXdHZvvo5xHd7pevXfvueee///Pva/GGRoa8uW116wg4LwG7qzgqhd9DdzZwzZ/cH3fF8dxhD91lILf+fPV8prtPuTF3AmN8pIGS8fF/7kK9qsB4LAPnidoNDqAw43NKEnyApdYKmMJJAC1r1cLsBnbi/4Q5pkiR17gRoHt//kPJdG8T0rf8SEpqK9ny0KZmKvyYKWM7fP6+6XvgbslVlUjZe86D+0fb/V0Qc4ZXDbM9z1xIQPDO7ZLy4dPlcTOLqk47zypu/ZO8cZGxS0onKu4hu3yxsbEjcel665bpeur6yRWXS7zb7tfyt7wJvGSSX1vuq+cwdXRHgWAhYXSeesXpO+R/9LfY1XzpO7uX0u8ojzQYGfGptd0Oxn9fMhaxAo/FpeWD50qYy3d4o8NS+kb3yR1X/42+jciTkCQ6bA3J3BNw4zWisSk9eK3y9Dzz0m8frH4iaRUXXadlP/jO8FesKKgYCYxmdFreckEYkVMhv+ySTquOl+8wSHxh/qlcOURUnfbjyVWUaExxY3Ek3wakBO4ytoEGhZDw174s3RcfZH4fd3ilFVDGl6W8jPfLzVX3y0CaZB4wZxlrp+gdBVJ1x3XS88P7pJ43UIRAO6NjEj12hul/LR3mX5CGg4oc/0EWVkoPXffJF13fkXiS1eiYZ54Xc1ScOSxUnvzeimoqlTdYiYxncblw5bJPmPiBTIczD4fs6v9s+fK0O+fELe+ERPRleT2TVJxzoVSfcWtZJH4aD9jS76vrJkbNgzR1B9Bw65bLYOPPSKxhkPA1BHNEb2uFqm9/k6Z99Yz0DYzCHPt5QeMHHr+GWn/4mqRkQHMRLTTdZA59EjBEcdL7Ze+KQW1teIzh2f+nmdhlDW4BMmnViEIDL+4UVo//REwwFN2ekjE3eJSSWx7Xiov/IxUrbkGbEbDAs3Kt3EzOTA2kPlBJtDz/W9IFwJyvPEI8RHANJYUFktiz3ZZcPt6KTn5bSAIsoaC/LOGrMAdj7CoZqC3vfd/SzqvuUQKVhwLFg+hYaAzmOv3d0n80FVSd9M9UjC/1oA+zaAwkwCzPRxob2hYOm64XIb+9yGJ1S5BACa46EIRwEXsqFpztVSe/ylGGNM3/jcP9mYFrgYyNowsHRqCJFwuI0/+XNzKBmQJY+OFA0Z+bPtGWfCtn0nJiW8F09G4OaK7KmuY5i6zhM0vSuvqD2C2FeFvQQak6EJfh/vFrVsiDXfeL/Hq6mkRJCtwbeHgQH9Gm7ZK87mnIV2p0cbquJINZKlOq81SufoaqfroJ7VY8wKvIZ+RnynWRgMZZ1j/oz+WjrUflRhn3vBQOLu0D2Dv2NaNsvBHj0vxqr8zZT46kk/7swLXTCfew5XeXz4gnZ8/T2IHHamJt3oLgTOmJ2GKudW1suBeMLsMBcUcMXKs78F0q+2qNTLyx9+gfSAIY0NQ8rIbrMySbTul/GNfkOqPgSDQYhIkH3nLCtxxBykpLWsvktFnf4cpVaJTSqUo0CMdeeSPiV0vyoL7npKilatClyyfkZ9x5qKdieZdsvfdJ2DqI/1igA5mngZsZSl+sggqK5VFD2zQYiNfgkwJbtTkSPZ2y97TDxenAkm3lfoA2PA8sNvrbZXyj1wpNRdcqnJh5Cz/fHG6INs2cID7Hv2JdF17gcTql2m6qLl45AYmtiCt7NghDT94UopWHBG+mytBpgRXR1Q9WzTslw9L9w2rAS7cL8YB5IbRhpkEHW+hAnIK43LQI89pnphvtJ0uqPbzUUO/+dJzZOzFZ0Wsd5DK3IA03mCPlH3wE1Jz8RXGyEGWlOtrSnBDFwyj2fzx98jo1peMJARAWkkIO0JwqWMDLVJ/72+l6ND8Rz7XzqQ739qjzASSPT2y9wxUlKUNGatHIw0w/YcHELQhDT95xsSUPLKeScGNVmUJNKzlA8djKhWJU2TAdVNyv5C56KU3NCDl7z1fai75nNbpM2Hh5Qu2Mg/g9D76sPTcthasLc64aqLBi9kPArMT86XuGw9K8crDIW/IjHKs1qZmLnUJVVnPg/dJz51f0t/D9bI0OupTszCFkjB04g01svCHCAqo2wNtyCulyRdUlTSyDoPrw6VrWf1uSMImBCu4XkFBkXpt/j1IjRA7uqTsPefK/E9fFzh9uZXzGcENy8XAI2i9/P0y9PQGidWgcEiJstEGmrwW02oU+WNRXGpuWi+lRx+Tt25NF1idYbjIaEeHtH4MJW3voDil5SpdaYMszlf2QpOTHfsga8ul/tuPi+OznNfUKGuCTMpcWy4m2tul7dL3SmL3bnFZPLAqS4myqcGDZbLX2S7l7zlHaq68QVcoaEAf6LVh6y33/GS99P7HTaHfkSnI6lq2zr44SvsBccsrpOb6e6TkyKNzXqGYlLkE0cF06n1wvfR843pxS0p1iScEKEO97fGceKF4bbul+Ljjpe6Oh6BxTMfNqOea0uTLXiMJIAK85fa1Z8ng478VdwHyW640ZEoNg4JIFyrRh0Rzk1R+ZLVUw29QguTgU2cEV1mLwwcD2665UIYfxnJO42GIosOT5qzjIw8jh4ZIUanMv/p2KTnhJHQUQWEaLlMuIBsvAUUN2j/S0opy91xJ7NgCJtakzW9Tr639RznvteyQ4lPeIrU3fV+lguvD2RIkLbg64kFgGt2zR9rXXSTJHS9DqxAI6IeaWjhzX+0SdWGRjO18Raovgg15IbKGYOQPVN6ri6VgWt/P1sMFuwIO2CJUZcaomXT2WFOdTl+SzC+S2hvvlpJVr1Ot5gpFNq/MzGUgg+4M/PoBaf38xVKweJn6ntFyMdMNtPk68kXite6UEpjn8794u3GhNGWc3WotrBYJEoJr1w1rsHz+PXi3R4k3PJjd/S1BaORs2yg1n/s3qTx7DXTXrL9lQ5D9wB0vd7UEk86vr5O+73zNNAzebWq5mBbgoGGW3f5YQupu/Y6UHHNC2LjZ1l1bVY3u2S1ta8+T5L4mcUoqMCPNDqGp7h8SBFLgdeyV4jefLrXrvi5uaZDjZ0GQtMy1DUu0NUvLpR+C7uxCw8rUn83FM9aiAgVHYtufpXrd16TifReEpfRUnctm2k12jp2+g799WFovO0sKlhtjP6f7alQjx+CUdbfLgnseVjPKettTXSs9cxntQf3BDY9J84fPkPjh0BqUg8xfc3pRA5jS9HVK4UlvlYav3HXAl9zbv3qt9GFJJ7ZohZG1XNhBeSMWCGzJHZuk5sZ7pOKdH9R4pPN6CvbuB67ahtyxCDux797bZOC+m1E4YF8CtSbHhhl3B//loAz2S9lV/ymxhUsRVJDi5TpQOYyqShvY5vV2yODtV0iio1WNfI0DOWbamh1wBQYrFEXHvkUqv3inEsTasJM1Kz1zCW6iVxL/foLIliJES5qcKlQ5dDE4VfUXXUqOymCyVvq7sJ9BS8zcL5XdJ8xc5j2LS0alqrxDkjF4CWBgXu039MAiAGbgol1SeNkLMH4WGN024p2xWRPAjXq3fvOfxPvVm8VpP1ykCelIEdjH9aacQTF7eJ2YA79hWJpfMZ3PZ5yyBdf3KV+eVDc6UlqHAKSxQs3Q7C5hzzIxHetq+GUBSvplXeKecLs4K88cd8omuWJ6WaA997t14u34EZL+EpHNuEIrGgcSRxZEs26oungOmROX1r/i2qME10aLrC+T5YksHnB9OFoLVnLvLUwbgJ3zYFpgsXlIyvGPo0gS+CXVJ0rsHeuN/5AXc6GJ3o+X4GI1pqJKAljMBhkORtJ2M0sW6wqrFh6eDHa50rMXzZpNcH1HSip9qT7ImPwmt862sUHneDoXUVgvYPISYG+Ey0IdEvvnv4jMq2UybzQ8w8iFzA1NcS7T7Nog3hNnIRCVYnRw9QK0rhcX2RQIjZl1RiKyaTMLPpUGjNOQI/s2x1Du8wI5Zh9ZcdfD0pgrtcuSUjwPgJDFUxSU4WVN8Tbep0QAbC01F4MEcvhjHeK+DkF+FVLUIKvKBMEEWfDAWDdWIMnHPyVe0yOYxSUaGnBVM4ItOCgRVh6IjZWxyaphnkb2oHFJzILOnViiH4x2OpsRmgpZ7gMz5zARqVvuSYyk0EkzxfWjfbBjzn0ii3Esw0FpcHkhlMOj3bj4cRI//acYOOAFqTOxfv97KLjjgQxXxkgnHzlFMHeR34H6uIC2llcgwH/FsScAOFvZZB/1XNb0vgxBGjp2xdD5mWYvNgQmXSmt8qRyEVNKerNGb6fCV0fF9odg1uDgCpVRFpUAH+mdP4aghq1b7tt/J1I236wMZ8h3Q+ayZuZuFG/30+L9/hNwsAa4vwcyaTajGUoEByRHOnEUR25u389EMJUG7oYCuD0ibTsIrp2BM8Rc3BubE2V+owfNBRggypSZSTSBsDpL6+CYgECUBp2h5kR9aiKBYuR168Rdda7m7Eh8p2AuGYrdft6Tl4r/yg/EmddoWKugBZ237OX2MAY4jqrVXysRGXBSOQO6LqbX2Ag8i10u2xhh1XQANpKgBSFWYuYv8bBMBhaDtZPGMctUO4H4k8dROCpxhMAGpGKu7MKG7N8G+/U0cd92HyYjgj/kIt1WU2dwcFBlgY3gDhrvN2fDS3gaXsJCTfx1/1RUkwgoNbcDx0sBuFMAGwy5rdd0IvTuw4JhqzuD0gA9H3OlrBaSsNDslbCFz6SSEGUuuUSNhTOpwNrxVlkwo+eDpYKgJqVLxP17pKo1qDgzbDVVWdBAhg95Tb9R5goSfoeJuK1qosxlo9l2ArwbBzU4dYf+JCRkcRaLezLQAStwD/SQU1CDjk4RA0rOL/OIE5e5qhd7Mq/GZAzBklf6q0VB5RkEswHHigiwqc2xEZMzvA9LXm+6RWIrzzGBjVMm5aXM1VaxFv/TteI9+xXsXjwaU55JLfubpsPakwDUl/GTLGaws9MsQ6Azg2+kIYFConO3K2ODACE2ncBmdouDUvC0PakCuIXFDGTBklI6aFPbSWD5nAwDWHQWpusHTZv4PAT8jdDci8U5+TZ8yOij4cc4Xs7AwICv6/RDeKLl/9aI3/4kNgGjeFChTpOHptOp53FRTimy0OI0CcCcXhhLTckGuhxuPJwmcw1T5yFLqEEwM5ZtYNHsxz59a5wIbC/bvQoHZ6ONI+naH+Z6XKGAS1i8RJx/+C7IiD2+wfbU6Fg6g/19pqctGyT5i/eKlNQZY8UKbSbm8ipsABs2iGNj0OgJOhX8LYU9vDzZ2t8J3W3GB5joh+OYqzQEwQzXrKjzpAJ6m0Q6ZkrTlBtHGWvfImsxUQU+eph2pfusPd9mDTHYAt2bJHb6/ciH366a5FDjoswdHAjA3fOYJH7+PtTOWIQc7TepBQ9jDKS0Mvin1S32pB0HC4zo8lI6RdHPBGkNAGnfHhPEUYBr9jvk9jKS4HuuZgdMwRhvzOzJYC5aSSMpmPUcHBxBYpRR9kPW0o4FkIVV4rU/K/HTvo0g+IH04A4MQhbYnuEeZArI21qfxKNPK+F3IM+123ciFw47n8oCdorBbRcO5r9BwA7PTwGa7I0jsLUj3x3qpe5GU5JcIDZMLUKp27A8gc01kfTL3jM1eLHDrMBsoWABj8pFClNJMMML7mnAFoMRlKuxInHPeBSysCKDLGhAw8f4xHnPZvEe+1eI9VboCT1LPGXICkSnSRoWpwYGnsgCAxWiMHha/yEFq2hgGwSw3cgaWGKrc5aT3zBe8pbXe1IOWTBeQgbWWn1lBUZ9pc6GTCdw7GeksZFZa3DgbIZRPgwGFVciFbtfnIZjTVYVanwkoJnyl28hCnJaDncja7hV/M13ACDoLyMj9CR03lNlIjXAcXqxwGAHJskgzGQwlGp+BWYRPAcTP3PRXIJpso0F8BKMJKUJZFHmWoCZGaBrGQOw7Sdlh1dl6ZuAjoyg9m88S2KnXIvPoxbgY64ZNuhpKqYb67SvLHXNsrG/9RHx/rAGWQDXkKrwF0RIeKOqi6kyEQWYjGVpbAsMi2EaOdXA5nqo1vAQCF23QOazBdikYMC0xJf6Q5LAKU0gS5UEDj5zWRYKlIbUbbdRbVVLEQ0nsCMIKjFYBEdfLc6xFwYZR5CCET8yOyU2hcZNOPWZx9lgBvMm+cQF0OEnUJEcjBthx4nPRb5JAg+ZQYBtgWHTm2gWwcGzzMXfRwccDWy55bvjQZGFQzH82/0CWXTQCSLBJKiHBr/bbqRJu3Rh0kFHHJjtQ62oTlaJ+8Zbxak7Rq1o875hQ6b1tP2XeQK90t3kTEDxw3vuFvE3fRkjVwnJ4ZOFWKKOTl/VYyX8uG6xMyww2nBYgyelTFaA6VxBElq3QPMxMLlUauwgM4WFKxm92eOIJKTGAzKWE5DGd7Sd/D0MfMGAcQWO2ur1QyZbxFl+vrgn34B+QEfoDPEbRWjGRuNRcNnoj/33LViN4Yhozcybwy1r+pV4T18rTv8m+A6YVzAsbATVtoUaFQBsDR3qL/NgBo4oQ0g0xlEa0LhJTzMKCpTEDmTCTK/JtHc8ty2uwIoDmKv2ImUhGvHt/ZjLUo8Re3RWWRtRz2XAMcGatrWjjQKwY4jKBWXinnS9OIecqVappmCsCSIYpcE0/NOkuxzNJmd6vGgdame/b594z9wosvVeFBuNwY3MGr4CkgqwLTBeDDoU+Ah69+B0Is4cd6TPxfoaVyjSzNG0PTBGTV1jUopQmam9qBlHMC6pWovd+pp6EWjL1qC949M6+EKkoe2QjzPFfcMNSLMaETRNrNF9x2m0NRPAU27bt7vICbADA9bjyP7lXkgFZIKwFkAqdJNEwLhUgKm5zThYYFj22tYACFut0Ybs2IGcJWEYO7k8GOZyYtUvT0ohZyuzjSiwlvjMWhpxHIyDmhueYxg7nmKZklbAWHfVJ0WOW4s4BkKpDRDZTT+pxTYR5qm37QcjZQJQUBkwoLW/DFP9EuzB/SN2P4LFmk1g/6rNJqwO8yPUXBYYO3EQ7OBSnIaG7eZPPbAh+yENdM0y57tBVYbSh1VZzRJf4oVp8ltbKODBI9VZgrwfsMwG0G7mgANga8VKyMBt4iw91QywXSiYqlKdiGn4rynB5ZnR/QzKZBvsRhFJn8HW0Je+B03DrvHCBXgP2+KZztmURud/gBXTMxYYNv8NAhwnA6u1fiz/dMFE1xLddC9Ds40kVC5A4dBASTDnKqnsuDCAofxXnbUvDfM8lYylF8Bdl6DzIJa0Vrxf3OMRtCrqdEqoBFhQ9SOTxYD0zcwK3OhHreaYBzN4UxQAWx4U74+fx7RrR7A7RAEOnz9jb4IOqd7R4GHHgzSI7DVmPVYohh31eMeGqW/pAltQkfEzuH0NVhy4Xqberc1EbGN5T64o0JBJmNkR1Jr6YcfFZpHhJkhVPUD9rDhHnGM+qUGLszBSmWYY4qn+nDO4vGAIcDTYdW8Xf8OnxN/9P1giYjbB3lkZCaIXTHjB+pmmaJGXTckIUBc83v5OTNag2tq/A2YRsrAMO2oO8jQAqnfL/9kZQgk4DAclYSzIBgxyODAtWOoPbBOn/hRxKAP1GAUGbXqyfC+HoDUZwHmBOxFgRhZmE0hfUB76z98t/ovIKJiAY/XYgUtv4n8AcAF+7sUftuCgFgdR3UoDU7IeLP8Q6P2D2nggK8degiqAq5hYL4Ezlx7/wTiW4lDGqrCb27ho0xjKx9EecY66BIzFM2mIhvSuubIbPgKWhwSkAzlvcCcCTPBYYwel895nxdtwofjdO7FZGCUR80KWztbm5xTehk4zi0B/lbn8D/7OZbsOLl5i8whj4zjARl58shS5cOUiXyWBLNYsgdckY7HaLYdzwHlNfeYc98U04E7Fwd0IvrXivv4WaOzpBg+W/GTsJJXWZOycFebai5opZPTM0eSabMHUGuoFwNDhpp+aYBefb4KdjwHQfBfnvYAPogiyKZplb9v2OGxISsPErIFA+Ui5CktFag8ef5RfmUsGq9OF6xbiuvg3d8g4WK2VZC+8gT5spjseues3xalCbhY+5MfAMS51+QI548ydALBOPhNVTTZBKuH3Td8V78/XYDqiZC5eqqUzWeVQHuB26hYpFABmPRSBDb5uX1sMR5Bl6DWDO5GQOJeMrVmaHA9kHAOODJ2uGlxrlLOAxQmygVH4Akn4Ias+Axn4dLAVIMgGgsvq5WdICqIgT0sW0o1WNNjxqUNdim7fKMmnPgsZeALB7hDDbG7rZClKEF8GGADbyK+Z/q1bIQ1It+iaERGtFLl7BuBTa0vKI7ktg9ZyXOcgzBvuhWDg5GdGAGw5lsBPwbMMi07W9MtMLGQDOvSz+5pxcBWesPAgUDQ6ADCmpfenm+ET3w4g4RPDzSfbfHixzm50cwfOxbQmM2P4W8s2LP8MUQuDL8ygeuI9ZgcN2BqquS2XckbwuUUYmBU4D5vl+OSmn0AqONYszrKPi3vi55DvYsGVW0lVW4NsYJbYOqvMnSAVwVTz1UlCNObs3fELST75CWgknSysZ9N9gmA6LwOgLpwQN/wd6nakG1tNNc6FFjK2hlYlpRr7wNSkYTZQis9BZ+3XwfgjuEgB3nv9zeIc9i+mObw/gu1sBK3JuD8rzA1vOMFhM08CeUwBelrEewqbT/b+CmyFmx/H8wr8AgwEOOwv1gDnY19D82aTLrCg4IoDhYNbQwtAei1IOP1X4boltAcB9CBq7NqTJPbmu+C/LtegySBrKwxje8y2GIzDPbvgBvcJZUJZFPjE/HXjHeI/x5wYW1WxJuX3Dov/Ekxz6DE2U0gH9jWM9I9v8Wewq1/Jyc19LADpMABbh6A13Is0bB9y1yuxrf4qDA5SLxpNXEEwOnVAQbXwHhBwQx0OdM581wH9U+Rk+55Cyna1+B1PiVN9qPh7URvDQaP5PYzFy3YATFAJZlmdLxXwElgc+IuRNS8DY3vA1tIVEjvxC1jifrc+WKKDOUMl7HRC3gEDN1WLzX4Ds8fKH2iDT/xl7K78luag3ivYXtruyShwbtkS1816NGrqD00IvjpHvAro59HQhf4dCGZnIHe9Bb7r4rx91+kA+LfT3Ax3npBNBKWzZmCb/xurHZfjU3hObcsSSXSOSucefF0VsoZYiSe1i32JzcNUPxLWGmTDPQbnHn2xPpnOgeIDLQc6aM05cPdrUDCV9fsg27aI/4fLxG/C5pTtB0t/awFsyFGUuwWwFzECjX8Vp/E4cU78mjgLjzMOl16QlVbgXxzAoDVnwbW23sTKziyKJv9wpTjP3C8jz+PZtd3LpeGgJik5CgbLSR9E0EIQxDdERe3BMIjMEWB1uOfK//uYiT6xCXZO06My9hC+nfm+F2TePy2VkrORCSw/m+HfeAM2aM0hQKNMnjPghhmFXRSliwaL0OtukuTvHxL3iFMldgi+egu2GVOsXBcLZytozVlZSNewiaVzsJRt8+W/UaWV78DMKeampmtqcptlinGTZRZ813zBm+pzcxLciRJhvAYNEK8iYOdUQJuKBa/G9+csc1+NYKa2+TVwZ3EU/x8EsRX3L6mlqQAAAABJRU5ErkJggg==;" vertex="1" parent="JyJ8WFpUNzoB7Qr8mawW-87">
          <mxGeometry x="1.75" y="5" width="27.18625" height="26.25" as="geometry" />
        </mxCell>
        <mxCell id="JyJ8WFpUNzoB7Qr8mawW-92" value="commit to &quot;master&quot;" style="endArrow=classic;html=1;fontSize=12;entryX=0;entryY=0.5;entryDx=0;entryDy=0;exitX=0.5;exitY=0.5;exitDx=0;exitDy=0;exitPerimeter=0;" edge="1" parent="WIyWlLk6GJQsqaUBKTNV-1" source="JyJ8WFpUNzoB7Qr8mawW-86" target="JyJ8WFpUNzoB7Qr8mawW-88">
          <mxGeometry width="50" height="50" relative="1" as="geometry">
            <mxPoint x="-207" y="480" as="sourcePoint" />
            <mxPoint x="-7.000000000000455" y="480" as="targetPoint" />
          </mxGeometry>
        </mxCell>
        <mxCell id="JyJ8WFpUNzoB7Qr8mawW-93" value="Developers" style="shape=umlActor;verticalLabelPosition=bottom;verticalAlign=top;html=1;outlineConnect=0;fontSize=12;" vertex="1" parent="WIyWlLk6GJQsqaUBKTNV-1">
          <mxGeometry x="-257" y="260" width="30" height="60" as="geometry" />
        </mxCell>
        <mxCell id="JyJ8WFpUNzoB7Qr8mawW-95" value="" style="group" vertex="1" connectable="0" parent="WIyWlLk6GJQsqaUBKTNV-1">
          <mxGeometry x="-40" y="270" width="210" height="40" as="geometry" />
        </mxCell>
        <mxCell id="JyJ8WFpUNzoB7Qr8mawW-96" value="local ---ecms-aws-cluster" style="rounded=0;whiteSpace=wrap;html=1;fontSize=12;align=right;" vertex="1" parent="JyJ8WFpUNzoB7Qr8mawW-95">
          <mxGeometry width="210" height="40" as="geometry" />
        </mxCell>
        <mxCell id="JyJ8WFpUNzoB7Qr8mawW-101" value="" style="shape=image;verticalLabelPosition=bottom;labelBackgroundColor=default;verticalAlign=top;aspect=fixed;imageAspect=0;image=data:image/png,iVBORw0KGgoAAAANSUhEUgAAAG8AAACKCAYAAACkTBRRAAAgAElEQVR4Xux9BXyW5ff+xbq72BhsdEg3SguIUiKiUhJKSUiIII0g0iCNgJSAtCAdkoJId8Ng3d3xv879vs94mYNtCH79fT7/18/c2N54nvvcp65znXMXSkpKysL/0UdWVhYKFSoE+S4P+Z6ZmZn9XX4nf5cv/sTfZ6qf5TnyMDIyyv67/Kw9X3vf//qyFPq/KDxDoWVkZChhiFBMTU1fer3T5X34Je9jbGysE7h86TfIS7/xa3zh/xnhadolayHCUhrGn80MBBYXG4vbd+8iKCAAFy5eRHhEBNJSU5CeliYygLGJCbIyM2BhaaUEVKVyZfj4+sLXxwfF+KU9MvlkeY08R9PO/6I2/ueFZ6hlIjDRNDMzs+yFPvPnn9i3Zw/8HvnB78ljxISFgfqDkJAQJCYmqsU3MhKzqeyqEnhmpvw/C0W8PGFpaQ1jM1N4FSkCb68iqFm7Ftq1aQNrW1v1ktTUVJhQ6JpZ/S8J8T8rPE3TNB8lgpNFlMfly5dx5PBh7N6zG+EUWmh8AlIoqELGRnCwsUVaegZi4uKQmpFOET3PpYuPM4KtGbXLlO9LE2lCTbM0t4BLYQ/UrVcP3bp1Q5UqVdRnpqenZ5vT/4oA/3PCMxSa/CyLJr5M/NGBAwcwd9483L9/HykJCUhITIK1hTns7B1hZW2JyKgoBAQHo0qlSmjasAY8PL3g6+UOJ3srZElwIpqUlIKYlDQ88X/Ar1gEBYfi2Im/EBIaBHtbZzjaWSAmPh5GhYxgbmmBOnXqYOLESShZqqTS+v+SGf1PCM/QNOoiQ51f00zViaNHMWrsWPg/eIjYmBhkUKju7u6wsrSkthkr8/g4wB+V36iIieMGo1L54nBysIOpEbVK3k80K9uhMdLke6enpCDLRF6bjLDIaFy9/Qh7dh/Gb3sPIiY2AcU8PZFMv5dKn2libo5RI0eib79+uuCI71WIm8Fwo73GuOS5b/0/FZ6h+TEMSORqRYg3btzAsGHDcP7sWcRRQPKoW7s2fBhcnDp+QlYQjwP9YW9ng3UrZqNG7WpwMGdQkpZOjdVFoRkZutQh+yGpgxhMCtbYhJGl+ERuAHlGCv8XGhGLi5euYvy3ixn83IAnN0kh+X1UJD7u2BHLli//2+b6X5nR/5nwcgpO0zhZmYjISIwYMgSbt29HGne/q7MLunbtig8+eB/lqV1n/jyL1q3eU8KZNW0cOn/Ukr7LHBkpqUil4ERWOgWWcJ/fsoUnImKel56igha9kivhipaLT1V5Ic10qpkF7tx6hOGjv8fZMxfhaG9L053KqNQX+/bvha29wzPW4X8hwP+Z8GRpc5qdWIb6K1euxMwZM5QAfYoVwxAKsRUFZWVhAeakGDduPH7ZsgUN61bD4oXTUMTNEWlJycof6YSmS8JFMJmZ1MDEOP6QprSUeYL6TC2xf5rL6fRS/iaJvPJrxhSiiRUsrOyw59hZ9B86DoUyjWDMN7a1tsaR47/DrbCn+lxJKbTXG27C121K/yfC04Qmiyw3Lt9PHjuKr0Z8jSvXrqGwR2H07dsHPXv2pLsywt37D3Dm9BlMmDCRz83A1Cmj0OfzTkiNiEQGAxolGJ0xU3lcenI8MlOTNPXLRlieWUx9Av63Bc7xe7lWO3sbPAqPRvP2wxEfFw0zRrVm9JcnmaZ40DcaCvB1C8zw/f914Wk7X7vhGGrb0sWLMX7CBFiZmKFa3Vr4YfYcFC/uizv37uPcuXMMJHbjtz37UKSIB1YtnYs361VEUngE/ZRAXyI4Ju3UgIyUeGSkMrcrRE0QuOup/Xx6z4b+T1lWHYqS/f2Z1XkaPFkwaEnjW9Zs0ROJCen8vDRYWlnjj9N/wI1+UaJiMbv/pvn8V4Wn3ZgWSUoiPXzoUGzZtg1eXICen32Gb0aNRFh4GP48ew6/Hz0Gfybex44fR8nixbH71xWwtzBGbAR3v0rUCyEjLZVWMZHRI8N7I31UmZtADH9XEPXQCzaTgY+FpZkKamq+0xPpqYWo4Unwpmn/bd9eODg4KMGJJfm3BPivCk8ZNj1wnMA8rXOnTjjEZFuixxnTp+Od5m8zwrunhHbh3AUUK1YUGzdtpmCdsWP7CphnpSEpJh5m5mZqgTLSCH0lRKqw/anpNAxQcmhWQYRm+FwD4NvC0hwPaUJbfvAFNdyUWpiId+mT5y9cqPJRDY35NwT4rwkvp58bSo1bTHNZjDt3PhPvOnVq4969e/h112+M8m6jMnHHI0cOIyU5Aet/XghnG+76mASYMSkXv5aWFIdMalshI1PdTlduTw+D5Vz4l9W6nMJWAU0G7JyccfD0FXT6fCxcbS0REhaBCVMmY/DgQcREicTQH/4bgcu/JjxZBwn7ZWdu+PlnfPEFdy5NzBIK8L13WyImJhabt27D5UsXUaZsOVy9eg0Xzp/HinkTUKt+DcQFhsDcytJAcAkUmJhJLYfTpwUCWnOBs7IKqfdXi5ib78uPFub0hYxEM43MiYVawo5B1cKVWzFm1CQ4uzqrCHXN2rWoU7euDtTWpx35+ZiXfc6/IjxN6wTklSpAg/r1ceHCBfzwwzz0+rw37ty+hU0bf8FZ+jnfkr6IYjBy8uRJDBzQA0OG9kHMw4cwo+BECDqNI47JJNtQcFlMC0T9MsBcjX8zNUpHanIysvg7Uz0mqhZJS+4KuGKi7YVMrWDv6a2uIygoBGnU9InfzsexY38gPCwU7T/4AAuWLIU5zbqY8qe1xAJ+WD6f/tqFp9n+FC6kOXO169ev4aMPPkQ8c7YFC+bj4l/ncP7qFRzdf4DBAFMHKkoGlalJwzrY8stSZMTFEuFgfkUBpCVGI4Nm9BnBSTGWgssqZA4jgsr2Rbm4aYUQEx3L4IZ+MT4KcbHxKvossCnTa16W5I2m5rB398SZ8zewesM2BlIB1GzCc9Rw2Yi2rELEJMQrBObdli1VNcKw+pFPeRToaa9VeJrgxFyKM49k4j2gX3+cOnYcHl5eKj+6fvumuuDa1aujRKlScHByxPETJ2FtaYIt6xfBjuWcdEZ6menJTLhjcghAJ7hCFnaw9/Bgwc4M8xYsx4kTZ5FKgVubm2JAj/dRp0opxFOYooUFEaASGoWeyeqEha0LguLS0OjdTxAWGpa9yFZmtkxrPJWZvk4L8kXfvpjK4MuwSl+QzyyI9F6b8HIKTqLK0d98g0A/P7hzoW/euaNQkw4ffYQWzZspP+fu4gIrG2vMnDUHU6d+h23r5qNFy8aIDQpDVioXn7mVaJ2iMwjMRd9mauUIm8Je+OvCDXwzejL8H4fgSWAwtZdmlA8PdxdsWjoRVSuWQWxkjNLg/D6yhcd0xLFoKYyaNA/nLl1Cq3fqq88P8A/Dzn3H8OhxACqWK4ugwCD4sri7fPVqlC5d+rUn769NeLJAkrjKrrt+/Tr6ff45Ll+5gvISjNy6iRYtWmDol4PxRoUKcHR0wkX+7a8/zyAhPonA8Hnmftsx49uv8cXwfoi8eQ0mWanZ6YDU6GTxjCysYevsjgMnLqDvwJEIDWYhlgKtVrkS6taqoHDOE6fPY8HkL/FmjYqIDI8skPC0QEf8nbG5FR6yqlHYqzBLR9YK+E6nUAOj47D6l31Y/ONWFC3sikeBAfiRpvMjbkrDGmB+N0xBnvdahKfDCHUYojwGDhqEFbyhqhUr4SL92+jRo9Gv9+ewJkZ44OAh5nVHkcISjSAjkuSGhgZjx86dGDqoN6aM7oewR3cYdOiCAKUNevzS1sUL/tHxqNOwPeJjklCzZgVMHtMHxdycYGtloT47lSbXTMylqqJnI9YFWSP13CyaeEv1noV4ranq/iRyNmUV3ohfP2/dj7nLtuEWaRgDBw7AlCnfPYO4vA7T+VqEJzer+bm9e/fi85694OTkhIAnTzDim1EYNGggHj9+guUUaCoLo7JDNVTfgqY0iLt365atjDT7Y+LQrojwfwQTovz0cNmLLoK0KuyLDz/ui8O/n0anjq0wbcIgWBkLkYj1OmqGpH1SHU9JJYdFGGMFjTRzpBgqajbYlIpSwc8SmoWDpxvmL9mCkRPno3GDt7BkxY+E84o8U3ko8I7J4wWvRXiqAs6dKiH69999x3D6W+Xf2rRrh7mzZuL+o0dY9dMqCpiBACNEregq6IsIz+/hA+zZd5Bmcwg+6/Yuwp8E6SI3g+jPkqnDtcAUvNW0LUr4eOPisV+QGBlKIekErO30bAugBKcrCRU471MIi/71uWwAScytqJUxLOx2GzwZp85cxvHjx1CNQZhgrtn55iuW3msRnqILcMfHk0cyYMAAbNq0CWVLlca0aVNR7823MGrUKCQnpyo8UJ6rPWShRXh3bt3C2T9PY8m80XivSW2EM2Ax1fNMtNqcCG/JtmMYO3EWzhz4Cb4ujqpkJJ/7t0fOZPtVJe4GFYgkmlKP0r6sjEzHghWbsX3TRrRo1YZBFWuFUiMsqNbnQ9CvTXjiu65fv4FBXwzAnxRE27btMO+Hudi4cROuXLkKOzu7bL6lXKdGhBUNO3HqJOJjw7Bj1Qx4uzoiLi5eF2gYaJ4F+SUrdhzGiT+uYOPi0YgICoeJojuIadPfeQ6AWtIVMed61fy7BmoaJqXz57xHziqExk5LYE3R1dMdW3ceRbcB4zGDNUlBkRRPzYDSkQ+Z5Pspr1x4CjDWFyjPst41aOBAVaPrR/5Hv3598eOy5Uya41SwognM8GoFndjPIMbN2Rxbf5qOlKhoGOWEmvRAsQQMZKLAiGYre2cb7vBsjZN8rRCS6F8tNPOrs625L5RhwJXzOfrP1oSYRPAhnabaxpqFWwYuj8Mi8e7Hg9Dm/U9YVJ6mXIIyuv91zTPM7UTzjh45gm5duyEiOgpTvp2EcuXKYceOXQqN0FjO2uopah81RwoEa9ZtxLsNqmLFiikIufuIptQ810XW+TcBpbVirPwzR21OIDUGLy4+RTFszCx83fdjWOs1MLuS/tRuZ/tLc1YPVFSpAp+n7GndE3RpkKOjPX478hf+uHgN308chMhHAdxMhdCqyxAULV4ea9ashg3v9T+veYa1OtE8MVFLWSb5cvhwFap/O2kiHNxccXD/IXiQFylO3hD7E+FJ2J2QEIddO3ej76ft8M3XPRH60B/m/P0zWpIfH6aPDNVuMCZsVrIsvhwwCi0aVkX9qmVZgRfw+lnBq0XmphNg+dydR6QNFoansx1Z1wQHcmiOEJucihbDwWMXsWTpSvw0fyyyEpJQyMYKrbt+RW20wM6d2+Hs7PwMZTDfNjEfT3wlZjM3we349VfS8MYhjmYvnHSFUaO/gaOLE06fOg0XF1d1Q4ZcEiEEiZAe+T3BufN/YsHUwWhevyYiaYZEqPl+GJhKElFgauPElxrDjHDb+av3mapMxoFf5iKZ3Mzsh14wEvabE1KLS05By66jMG5wV7Rr24jRbiivQYfM6PJMkpWsnWBpZ8ucNAKDRk5Bg7oVMaB7e7Up2vX8GldvBjLoOgVnokbyeB1F2n8sPENCj0aQXblyBb4eRo0zMUWRokVJ4buO4V+NgDM179zZv5jzPbsbRYiyk60Zbl+5fhu3rl/E7p9noCiT7USSZKU+lt9HdhJPPNLUxpGcSxuFf2ZQ023INylTqSkWTh6KRrXKswwVpwtytECI3zO5+DauTmjQtg86vtcEg/t9glgKSEtndGaTHBY7bkCCzxaubhgx8nscPHgAJ/euJLxnhY49x2DfoRMU3p+oSALw6yLr/mPhqd0oeZ2e2bxw4SJ8R42TCkKaoyMc+bcHDx5g0JAviTO645qeYCTCkshPTFIG4SdJdC3ZAHKVfw94chv7flkAa5YYUvn3XMP/50hTwyOzKDwjCxtinw5EV3SNKWaMcDfuOIppU6fhwOYf4GxrRTPN9ELzmbxWSejdfIug7+DvcJyUv4NrZ8LVxR7xfJ5iiamAjOgKNY+Shp2rPa7Q57XuMhRjh/fEZ4N7osXbn+PsuYuoVbs6gYiV8PbWJeuvukT0j4Sn1elkZ0nkt47FyOEDBsGCQiOdGW8z5H7AwuXpWzfw9dcjCNaWoT/bqfKeNC4uYX54UhscHOwRGREFGxsb4p9XCS7fwsHNC2FNjUvh7taodfnSPi0a1IUyCu2nBGlBTZCRFAsTGzvUa9EFxYp64Kc5o9VnpOsXVt5fNosj6YTHmIJ82OtrjBveG4N7tUdsVIyWYsKBbLIM3lcMS03G5HL6EVMdOm4Bougedm1bQBcxH7sPnqGGpqHcG29g965dDFzsnnHbryL6fGnh5WSB7eIF9urRA3a8yDCayyl2dNw0IV9FxuIQb6pu+XLkQZoihL0E6RSc1LssSFc3NTUjOmGJOvXeUlXy+yy83r1xBRtYCfAl0JtA1KIgZlPnmBhx0oca0X+ZW5nT31nr2GRcaEI6OPr7ObTs8AXatGyIDcu+RWQQfZq0iukFn5GWAWsPZ7R4fwjuP3mE3RvmojR7HlIIApgy1Tjy5xWs2bqXoECKMvepSYVwja4hJbMQLh/6CQuWbcCSn/egYtkSuH7rDqrVrIEDJCnRhOi7lgyi43ztyNyf9FLCy8kCO0+6wvtt2yo8MYGmaQgXbIK7Gx6kJKM/d+V1worURbZdhSFW+JR8WBOlT2BFXLyZh5s7ozIXNG7eFNHc4VJd+HrAR+jQpgkig8Ofoiv5uVFJDejf7Okv9x04jYVrt8GZgYUbAwdXF7KcaSWu3ryPPy/cRERUBOKCTiPs4eNnCqeSIriRZrh+0wEMHD0XxWlGT+34gUJKUj7y5LnraN3tq2eupma1yhjzVXe83bQeuSxTsHn3CZiRZe1KYd+l23iHVI9NJAtr/k+5zn+Y+72U8OSDVYMjFyo8PJwX3BThLFAmOziiK3sFZnq4KaM1k6ZwGjXvDeZDV8kKe+ON8ujftytK02SZc6cHUVCHDp7CouVr4UFTW5i+oTlLRVuYC75ZuRiWLP8OoVzo5+V5z5OlaLWgHdv2HEfnPmPU0+ztnGFKsqxsvIjoaP4mHQu/H46uH7RgRSLuqV/VtI8b0c7LFZ16TcKufYcwpF8nTBrakyWrBMWaPnn+Gi6RDi+IUDFvN7xZrQIc6EMtHO3w1fBZhO4OY1rJIvieNUQLWpxwgvKDhw9T/NRXxfEskPA0HyeLofm5Vs1b4C9qnpmrKyry95tpXsSPXKS5ax8QrMzow3t3SDJqzr6CMfRxdPQWVkq4INKSSPM2euwsrFy9BYUJhTVp9raKOJ1s0rFz43yWg/y5QDnyvLw0UI+QCGHpxLmr2LH7OG7e9kNwZBzsyL0sxUVt17YJ2jetw1Qm9mkSbvC+kofa2FnjdkA43us4AFGs2638YSw6vPMW4kg/tKVLSGGQJimOovvxfiK4Ud2LFcbokXMxh1q7t1IJ8jsz0D4sCm4MmoSPumbNGrQlQK+hUP+EIlgg4Wn3pvEzhrGPYP26n2HFYqo1L/6AlwcjRIbR/HkdBTMgNgn2/k9Qr3kTrF0yDdYu1rjDXOvQ8TOwZz9d+xb1mSvZISI2kcSjevDk6yuxmTGNfuTJo5vYtXoW7IXoWsCIU7k9tai8FmpGKk2lFGal0iFdQeLfLAnDJbG/L9dSkT51EAE6kzO6fschfD50CvNQ+rudS1GeJjWBfE0Tvo+qXUqfhAQ7jJ7dfH0wZOC31LyD2FylLJoyP1xAoU7gPTqQ42JJpsDRY8fYleuVXS56WQHmW3jaB2gqf/jQYXTv3Ik3YIZQC0v87uGECvwuvXPsnMJ4mswFoTGoaGuOb6cR2WjbHod2/Yr+wycxcotHSlqy0r6dDAbqN6yPydN+xHfTF6Fi+VJITiEvk0SjuVOYqDeqiTD6zQKReQwRGJo4qemp1mY9UK16zgX2yvG8vym05H3cSI5uzpgwYzmmLVgHe3trXD66jq1kZuztYwFZa5nmiyX1cfJwRY9+E7Hp0J84UrUMPBnxUsQYHx6DPelsOQsNhW+Z0jh9+rR6vtb3npcxye3v+RKeYWQpC5DBhsP6DRvhMTtUYxydMY831MvJATG8OHNqXiLNyWiG0Wtu3EKbd5vh5+Uz2bUajxWr1pO27okpc9bizt1bvB52rGYl4MGFHQhg2af+e5+TSuDFHrko2Duw5DN9JOGsmogIZdBSEJRFqd5z+g8MVyFH1eFv/Qr6v8v9O7Dk1LrbGBw+do4IkRPOHVwMSyFHUTtVf580bAqGWtgFbbuNJYmKdH0CAfYUfiJfb8H3ej84EvFcmzSyxYeOHIEhXw7JLlq/jPblS3i6tchS4b05Gy5GfP01flm1Gon29mgtZoEBitB9BCfmXoU/hbskOQ0rr91A767tMW/ZfFw9ex5FXa0REPgEzToOxqhB3VCBvXYfdB2E3j0/wKjhn6FZ4x4wZ4pRvVp5dP6gOaqVLoZo+hddqeclHpoAn/fSF2mewWt1iX8hJEufQvN+iiD8Zt0qWDrjSzjRr6YyOpVEXwTpSMJTq0+/wv3T17CpegVYMy0Sv27Jv99PSceHDGDsY2NgS2bBb8x5S5Qs+dIBTJ7Cy8kCO3HiBD5lo72Ezal2Djhc2AklaTrlxsRkhqanIo0Xu5zll+UUXp8uH2DOsjmIIMXPxc0aCxatx4mLN7Hw20FwIXVg5sKfMXbyIiQ9PqbLxcQM0cclsLVYfIhCP/ISwkvINTcTaUjifaZup3xopqqWRzEQq9G8B2JjU1GpXAmsXzoWttzQ0nomnNNMJu/vEtt0vPkQcyqVlfID+ah0JXwPO97LUgZIP3Knpz+4h7caN8Z2dkAJf0eUoqCpQ57Ck5uUtEB8nXzvxOaQE/v2Ib5YccyxNsPnTAPi9dSDYDZ+ZNE8GPFif6TmLbh6Xa95PyDo2iV4+LixurAACemMMPt/AmPecAwF1OzDL3Fl33LmXaTm6cmxRjS//4iqnh+BGmieYqQZ6xJ1xQXNpe9BNrIACpcfB6JFu34UiAVaNqyG1eunIYjCsqfViE7MwDs9R6IaI+1x9N+yAaX8q1gCeu3tERaLgJhoOBIwmLtkCamPzXWtAHqgIL9CzFN4hrjlps2bMXrYV4ijjS9mYYbNdM5uTAuSKbwkCjaQwrOQaI4X+wtNxHdXrqPDe82YBsxFnN89OLnYYeX6XUzO09Ct3dsqXyrE1x+7cBeNqpZUZCQxT9mP161x+veXaJEVXybVLmoKREp8JHmiLO8QUtOAbqWJ0grNCDaLaUKv3hNx8PhF9O/RGlMnDULgfT+CAE64euM23h06B3242T8t4oJEojXqIcxu8fL8fppV977xKbAkmlS3SWPV6SvpRkGDlxcKT6PwicYlJiWi72efYx9hMPgUx2rusnfIX4zVF0QDyGEUtERMpzO15ijzm89v+aGytyebSSagPHOrlMgw3PIPxdkrt9Dh7XqqiiD+wo6LESe1MMOian405588R5+MKzYYr9fKzl7V4Ag7IzUhmkVYllW1jltV9SBPk19O9nYw4cZt0HYA7jwKxMal41C/RiWFHnkW98bqFdvQd/ZazC3iilZMcyJE4LxOwXMzuI7i+1L5fRTTh9OJqXBmjDDh+6n4mDxP0VIhbf1jzdN8nZbT/bprJ77sPwAx5Ow3tzLFbMJN9vygdOXnUojrCbWO1HDevtj2x6np+Jp+6yFHbAwbPgBfDe6CkDs34MBk/tTF6yhfzIvCs1QlGMEHs/HLvML3fyKwHK8VqEyITH4BIbh0NxDt272DhOAnrEJI9VzXyCJCS+OXLWkOVs4OiGVv3vrthzFk/BzOeymPI1vnqtazFC68O2G0oUOmYfGGXVhLgdahE4wUjNWAqCQj6xz471MkYA2OT0aaQGetW2EpaZBWpIZoZKX8CDBPzZOLl5LN6FGjsWTRQtiVKIW51ubowPEZ0SyNJPFGo6RCoLMMCnGQC2BPD5YmpeKH+4/Q8I0KWLZgAtycmBiLXxOhSXVaW0w+X3yq2BWd3X8JjmVBhSo5HDecI2t3qzbvx2oCyb//vgp+F64ofk0Gr8GEm9GePt2EkFcAzeKufSexk3De76fOK1C710et8SZzuTgGbxbcyLZO9viE5KMj+05jd60qKMzPiJa+e21x9PGDOTd3Cjfsd0RtDjA2sGN0Pm/hArRp3bpADSrPFZ4hkegkGz++JF39HivMzWku57AZxEkiTE5ZCE5nPY6Lrog2inHF3cofXOnLDiYkYwJte/zjR+jZtzumju6NaCIu8jQlJL0jlxDbiYtkZGrM9q4oRTh6ZRFmbpqsN5my0RwomNVb92HirBU4f2QNnFgwBn0SyE5Lj0vApWt3KbRjOPLHJfYp3ECpUsUwoGtbdGzXjFCbOdOGBHJZ7Gj+UxAcl4R29IWF7/lhZuVSMOZ9pahNrQt/skto/Hw3xg376CpGJTFou38Hn3JUyaw5cxT10XB85Iv2ZK7C0z5EvssbTZ48Bd+x89PKtyQmWJmhHxdadlQsBZcgWqJ/aKoutt2UgYcx//QtTecWhsdOiQkY800f9GNOF8PetmQJToTRzPcXVEJ2czx9QHOO6EhMlP5yaVV+DrvrRXeUMzk3SMRV74BEs3rfKlZFNs2fF66jccdhaMa2ssYNqsCO93j56iPcJvn36o37iGSHUalSPoyc26BV0zfh4+XG2l0065C2LNImY9fJc/iw+Vs4deoi2oz4AQOtTdHbTUALFplFeDl8uayPFX8Xxb9PoPCPR0ahsoc7Fq5ahcqsvGsoVl7G5LmapwGngUGB+KLXZ9jHxscqLPMs5S6rQLMXyXwuXJot9HNLtA/SBC++UCLRvwghDRSfwF1mlpKA7j3bY3jvj1mycWZ0wxSEu3zRqq0kqm7hZrfA5Qt7EXr9iqrEv/TDMErV/5wh0BXrg3ERMdw4EowIc1omWxFUZt1vyoINmLdknfpIiZeFGebDAKROzXJoVqsyC8lF4ckOWMnbTAiNGbPMtG3bAeapa9Gx9dv4clRvTPhqKnm7qqYAACAASURBVKYt34oVVd5AE/q7UHEhes0zXB/ZkpI+uFOAy+ISMSuZm8rfD9NnzMTnvXvnm7D0XM2T3SG7dOfOX9Gj26dI9SyCzmZGWMhwOIG+QISXIEFKDq0zvEj5qwsjuZ3UvrF0ztymcKa5NLczR0lvL7gweLlEYm5AQCRzvHCsXDIbH7dvhIiH91SR9p9onhR2dcRZmnFeiAN928pNu1GHgUTFkkWp8jTNFGgyN5UJN1k8k+/b958ojECe70Lqg621Dc2YKeyd7HTPp5+W5x08egazF2/EnYeB8CVIffDQSiQw2vx04FRcp3ldz4aXYvzkGFnD51gPqd7L5r6YlIZJ3ODXHzzkJKeOmDZ7liIkawHjiwKXvwlPSw80Zte3kybh+2nT4FOyFMYw9O1MykIwBRdDkyMRpgg45yO7WCthOP8oqcP++ESMiklUXTvWxPYkMpVmx2QWbAWk/nHhdHbMtkBCKNuFE6LUQDj1yOmzctGq7M/PDv9J4TPnHE0WfCXcT4njxAgGVoHcRO99MoTBhTGaNaqD8hWKw9vdleOxHFHE2wOFCW3p8jpRsAxS8lNgyn9fv+OHByGRBJMvYPehk6xkZbFEFM7X2eHPvStQuKg79u88jo4j56GFnSUm02TKjSdLE4r4uxwC1NZYrR3ffxxx30N0I9YRYeTY/Ir6Derny3TmqnlP56SEYiB7xnedOY16dOQrnO3hxcYQv9RklZRrHim33WEoQBGvNS80iA58PrHK3xhhpdHcFqNQjWhaMug7bz84g0SaaOYanKkSx+FvMsEoF7qAJiBtQXJJ5IV8ZGLJqX/WDkiOjWCTi4xrFGw2HX7+wegxbDouS83Q1h7JRHtMTIQAJcMHsu0IAyrmZfzbiYM/Ycr3KwhjHYa9jb0yaZHRCXBytsRvrIhU8HYHyRWYyKrIvJVbMLpqJXzGGZ4hvC/Zfs/VHF63vM6ba7CY5aJlqZkIZ91zEVu9e9BNieXLq8chV83TxkqdYdmiKavkZr4l0M4oCys9XBioFEIENS9RsLw8kupnBMiVMeUFm/D7IwrxNnfabDZSptH/JCcnIvjRGcSHsvmRN5OeHKemGalpDzk0TQIZKenkGo3qBauaIS3IVDaxACdt4MdVWxDCsHzoZx/CgiB3CrVqx/6TnOawDReuSlu1JRxoymWxRIgKymIiHhAchMtnt2D67HWkMBwgmGDNWZxRaE9K4ORvPoezFSvnfN5VEnQ/Gz4D0SHRmOXjgVoE64P5GaZ5rI+YTiea40s0mzPo9/66cwtD2Zgznp1VUnPU0J3nbYBchaftv9WMfvr17w/7EiXRm059Eh22H6f+iOC03p68kklNgFogIz5AUomSnNLXNiAUNxmwJMZH4+6Vo7CQiQ684QxCU2lcJFVqEdMraYjsRJmtyZzKgbM0U0j+yS6j5NDCLAkqOPBNhGeWmYg7gkV+NBgLp49AuyZ11XxOWZx0atrZ6/dx5dJNRci9dO0OgikwMfbiB4VJdoyat4VV8dNs26pEM/t+u6aoWb4krzlRzT2zZyls4fLNGPHdYrRjPjvanBosG0y07gWap5lODXn5mtp8lJ27dTm2a+WG9WpoXl4zzZ4RnrbAIpAE3uAE9pAvXLkaFYt6YoatDerz6wETygSapby0ztAPGtaq5GdB1MQPLoyKw3pGWzEMVrZzUE6jt2qwmsC5mhwekEp80YjcD43RJT7IibWyuT9uRnWi9TXLFldovE5u+kKr9qFi0onuiw1OI6znwAW+yT6Ctp8Mx5pFU1CvRkkWe1OUGZWARiYqmUi9kBcmliCekF2K4AT8mwnfS6iJUk+UDRTPOqVovghOItIbD56g54ApuB4Rj69J8ehtzebQfGidzp3rcmJPbpTBLNYepKGNp+nct3+/Gneiua98a55GDg3loO1uH36I43fuoTYd+joyr+y4mGHEMBOEJJuLI/5b5JLjF9lmVPJAvv4SIaIvifGZ0Qd+1KYBZswcj3jehBHHVEnQkt3gob9RCQPjqX2dyEhev3gsWWE2nJBEAWrmKWcwo+RKjig1yJkmf/HaHWw2mYuFs0ahWb2qsBPIS5pYJN1RotJNpH5aUdDNEpNqehwjZXl7qZyr++B/VuS4LFm1HSOmLEa9sqUxm6w5KwoiSfLjF/k7g3URUL80zex05sKrU7MQdv8u5s+fj884h00ehhN/c67v3zRPS8zvcFpDi0aNEGNli3eYtK5nJPaEuy2OWqdMwssk0PpPVzfPhTCjwrwdHIFCNJ0SAd68fBDxHPch6IsELWrmigE4LGUTF+/CaPfRUA4ScMSquSMRR0RGCe95UajeD0ria0Vz+wXJQRu27YEvwfX3WzWAbzE3eDIY82T+KoQlqclJZUOqC+Jfk7g5EmgiS/mQ0KBP+DVk5jzRlw8/HYkUFqUH2VjicwrTj/5c4K/8PFTFhk90pRX6i8n+VG7iK2TZjWHr90haPR1qpQNKcns8IzzDtqtjHL3RklibN/1dZ1MjjOMNPmAvWgL9UkFM5vNuQqIpB+7qrTSbYxioODGU3/7LMrxR2psTjthXns5JfvR7QtTNFoykJhRyFIVdremn+OarXhjS5xOE06cJGfaFkJp+EayIirTvMQpHjl4iwCA8Gp3ZtefkWjtOhrdkpJhGxkAirUIqo+Ao1t06tm2B+d8OVNokfzOj/0/ntff5cgr2cBJFY29vLHKwQhh3tfB3dAqfP3QoQ4hSfGo8KSRfMpW5yDpg5/daMvlfQGa2fTakltv7/U3ztCetX7eOo6U+R2kC0UOY33Un6HqHwUpyAUzC8wSX7Vv5BDPe5PtBEYji7m5YvwrW/7IcsQ/8KCS6PjGdetOnCUZMmJ2jLTbtPoWeg8bj2PalqEGKXSQ10JS+SznUnAun10ot6LGkhoyYuIhc0gccOJ5CKl8sGWqkK1Bg5oz+rFhkNuMAAw93exRnSWsqN4k5k3VpxRazac0S1oLVOzBqyiIU57yVflz9DqTAB7N2J7BgQR5yTWLJHPm6PhFxOMprqejsRM7pbnhxOn2BzKZmZ6dOnoyp02agPKOfcbzY90govZmSpNbmeWpckIuW54oQpTh5nTfdkWBuMZqeY4c3w87ChH6GgY2WMogkDcyi5IVOHBHcc/BU/LJ9Py4dWw0f+rQoEpcE2H0RnU+RhZmrOft6I4Q539mLNzg3LJJgAd2BXA9Jw040yZ7sVyhT0gd2hNRiHgep18jDhpTFa/f80bLjUBgRbeLyYg2TckkxkvnegtUaBmh5rYkKWvgkD76uP6G7o0wZHInt7j36O/HUUi9sUMlV86Qx/xu2ZC3bsBFlSS76iTvdx9wSjxjCv0ygktsNKO0TLZb8j19dAsIQykivyyftSJUYgljS/YzpGNOTYvQlIr1f0wwdX2NHCKt9z29wi4TavRvnwIsUd+nnk351JUBNa7ULyNZAJsgMvKQV2YoYJbmBOu6MKI3sTpkMz4hTZpYlM9ixoEaLz5SNkcGoswUJVA/9wtl6TYCeCFFnFqWH0xz7S88h30LSoYIIMJWfWZQVlTGcLL8njYA/B8Tu3rsb9d6qr97neX4vV+HFcYpDL5YofuNc5wouzthNJrPkWE94oWa5TVvIa3sZ/N3wprTunGLEMXuzB25fSDi87J1w9MAa2Ir2CdqSxKo2AW3hl2jtW4pnwi8ZMpDJhf+gx0hEMwnfQHp8SUJVQf4hrMkJK1upd+5dtSInmmCpVUqI+fTkE12sKUGL8D3FBAtM5sxCbDI7jjr1G8upSldRjJs6NT4WydaOFGAiviH+2YNCDBAN5fsZa1FpHr5P7oNBJooRPJhJzdvCa/InpXLb5k1o2aq1sgbPyxdzFZ6cDNLmnXc45yQY5XlBu8ka5vKxikCsT6K/fDrjnDI1RFzSeFGOXBx7vtcq5nZzybC24nuHkhregy3Ns+ZMQsy9h6QcsAWLtASdL8tWOyUUifpseX0h0TFo0/1rJs5JWLPwW9SsU5nNI4+yB/NkX4cmyJwCfc7mU6QrCsOVc17u3r6PQWPn4uQfV1GcrLdUTvwzYUtaut9NZLh4IywpHoPp9/o5WKvqueSJ4v/yo4GpvJ4idA3LWXpaTc3zu38Pmzf9glat2+ix9afTpAwvNVfhyeznOpWrsOPHHmUZO+/zdFWRVDRbpIxlFFQBNE3zbVoglEZ1EpKSBwX3JxH6aYywBC4z5sXbcPdFUhBiwVYtn44369dGAoekcu/T/4n26X2fZg7FX3Cn2jLfC2TA0uer73GdLK4h/TtjyGcd1DkLUXw/E0aswkb7mxCfo5nqODZqpCutTiqvddL0Fdix7wQ5p+Sp2Fsg09IBJd7tpkhL/sc2IeXJPWQ5F0EgfdVHjA3G0M1wBDXBDKlr6k8+kbz4OesmVEkPWpBfaaaXEuO8ee8ulv/4Izp36aJjs4klyEVhchVeAI8wK0UyqB1zofKFMpXwHnCBxTaLOcjvw3DXKVSCX4V5kaH0KYs5M+w3QlyJhUzgws/IjI2SGe2wsndGMAVRuowvtm5dAXcbVqtZbuG8RtWJqridhg+lgYxA2U4lEWuvYVNx4MgZtCQM1qfXh2jRoAYy2JMQQ0BcVfBzaZGW36vZ1xK2cwPZMx+U4GP91oP4cd0O3H8QyPs2hgtZBKZFSsO7VjM+TzehQiCshwfXIdX/HgpRgH4UYFPinTNcHZQvj9MHMS8SgmieB1lpe1j3XEzi1nWOa541cyb66+e4yGvzLTx/f38V6dj7+KICL3CPlzPuMpQWAeSV4xlimVpZSYRmQ00z5vcdpBYsYm0vgT8LEdUiOhim7sXhXr0xqwB0+qf3IzMyCKFMWkuW8MWcGeNQt351pPEsvPiQJ7LMKnHPduLcS7r5X+SbFPPkGGETbFuzC8O/JZE3NYHV8Vro3f0DNKjJHiYGQEIgygnXSe5oQ+GLdO8xzzp05E+s3ryHww1C1e8cqNkygUlAAjOnwrB09YJzqco8KIr97mIa+fkPD6xDSsA9GDl5IpJVlzIUxiyiUk68b7lXQypETkGIC3Hn8w7S7C9gon6VmicHg3xBkDqn5crTbGYLz7e4atvaTla0CI9Vkucmn7q6p+ExoDq4SXafsMmuUsvGE8t8yJ0qFABTnjRiTi1zqdII9kVKKn9mzNavhLBA+B3aqHiTaaxgxPJ5777TBF/064WKPlw4Y31nDz9OeCPC9ZSJ6w+I6K/f8Tsec66ZF31SBA93OnLkLBIYepP/BUe2mrVv2xht322gq9KL3xPJCI7Ljp8zf13DrzsPk/rgz0CFSIuRHNjBnI+RqwAKEj2pk8D4kpTEWFjz5LDSJAunxDG/JAqVScH6HeH8s8AHMLFlwZrpjKRBiyhAb0aS0q/wvMBDE94ebuzFBCiu/xPhBQYGohKTcxOfYijHT9zKDiCBfcR+52Y0c+5kbXeI0GIIp41m8nmc/sdFXk9g25glJY83W8OxVCW1a5XcVdTH3nZLW8QFP8KT37cqbUpj0BDJITxafatmlXKoWq0cfCigwsyzChMu82eTSq8BE3lohRVsHUjgoXU1p0aYcdFkjLCcXikkqUz+HEvURndAlG44jpYdCN/Njsl5HNuwMkisksGtNjz0IlmCFj4vROa2qCvlK4iFenNL2JaohCJ13iGOzoZLAuEmfP7D3T8h+uENNlm6IYmfEcGvPQTU3ehzVQ00F0xY3FFholi/6c3mDZrNRZxh04MnuhgWC3K6q1x9XhhB6aZEtQOobRVov9fTfofL/GdeuOIgGjwMzaQO1KUp5HOM+Y/19EHf84LYC8SpELx5mhPbsrXhVaOpcl1i7pR+Ki3QabVMsTVj0TPi1nkEnfyVOxioUq0qhn31FU6dPMVO2oOq/1sbOKcgPX6ZObvBjmrxIQGFo9TyG8zPzGkOLeVa+CUmWr5SCQiUKeWF0xeuKcBaGmPkql0d3fHB+w2I5teETxE3TPxuGQ6fvoxMVhTaEHob6miNcrQMMrdzOTtph/HcvTKsslhWbsL8j/VAD4qT2mZu64CgC0cRyi/xiwKjiU/b5+mi3E5uuLD83ZPP20C/vJw+7z6jzcWLFqE7e/wLbDajmCp0IK55nkOwyxGsXUOaepLsGH6IIbpiGPrL8stCiZkMppaOZzfMcV5IaZn5RTNjSiq5V/22sPcqzkHfDB60JFoTmt7sGnGhEiKCERcdidTQJ0h6dA0JLOtM+nYKPmHuqfXpCRk4jt021znCvwvnmjnzAvZzgVy4YHIt0ql0hRjoGvrOE8zTpAisGkESUtHvs/Zoyg5ca9NkBYLbEM8sQuCdE1Zx/tIt9Og9FncfBaFEES9MlcEITOSFGa6LlGlm+QENHzxWHb52paoS4+NQBFtHkqqKUGvTYUmzGXj1D4SdO8xWahPc5/N/YATakOUioY48s4ayoVSSboJ5zPM2EOMMeHCf0+43ojX7/AusefHkmAzu2w8b9h1ARbK8FjuQiCMjLyRg0WueJjgJRkRo5hIa8yL2k9CzkHlbKoMKW3JTUiXkfqMuPGo0o1+g+eKXzmHruR2ibTStMvI3kXW9RA4BV8ZZNorsXI7iT3t4Wc2kbvXeexj4RX9UrFoNjhz3KI8bnBZfvUZNjK9YESNZGQiVhg09WCILbUnm8z2CC5sYhq+mIOOo2VGExd4o5ctZnq1Qim1kJJgzX7TBGc6pnj17JSfPp6EDmWNjqMV2BBDiafoEkJfvOi0uhAUkD2+gP/X1Lg2Twj7KdJrRdNq4eMCUPtWSmvzoxE7E3rmIKK5FLxsL9GYUK9HnMwFLdpJujIksh/1G1Qyk5u0m8atJs+YFQ1hkQaTIOZIzw5avWYdKxYpgLPG8CgwKomTeigH0I4KT6esJ/MCz3N3raSJPcuf4EJjITODME2cveNV9B/beJZBMwaizfiQw4chhVZSl70unMJOiI5BAx2/EXWqYDWVKnU1o5zLlllHpnXMc5RgTgZZNG6Nxi5Yo6euLsxzYLeMRfyxXBh05pE2aXZRx4nXqZl0SCGCYb0efE0RtnMOgaQctgz9NOsJCcrgRc7aduWIWEaWOLLSKWY/nYgfydakGFEdTatJuvn40a5GVvUvBiALMkk5f+UxuRGsnN3JRfThbJgjB+9biIf3lPAIdDbiGUgIyFJ5YCVEKMZvSv7CP1iqNLQIHiW1Wrlat4Nim+JMZZIzJhNpyZI31J6LeijsnmDcjwtM5eVag+XMib258eBwO0s940j/aMEpMplBsfcozKGnDTlkOwqH2GBvzJBA1KooXSy1L4/NSY6NZmZazgMSX6mZlan5TGwKuCqRS/DUhx4RCSQ/1w5NrFxEZR9o8X+HqXVQ1L26gX65NSOwWKx9m2QdmyJXq/IzwS125aYqSQHWdQclkWgchPATzte9zczbnPf7E322jRo1wdEATguQivNLEMuP4+clqorzuYckfTpHK3yc0GpWLkRldpBQBAZmkpChHisZh5+6FJJ5QFvHnXvhzjfaTqOukt16GwpN1lI0sDOovOfDgICNfT260PSzJebPU9CIqRK71PHlzsbmf0mEWZ9TZg5FQN0cbBHAHydlZssCidcI7/DQoEifo+MtRMInUHhIk4Va+FjyqNUIaBZNOJ25CcyImU4bnSDtVDPO1dN6s1OqUZulr2DkxCE2Ayh1KC4tghkJv4OZgwoY05oMh4SGM4rKwhRFdNQrhrhy+IahGDp3S4ZeZsOHZQ3J/8qmzyVTeRxN5o0RRJNHcPqHF6U54zp+a2ZEdTMVYt2tJIUp6oLEH5CJkaMIV5mOdSAes6F0SRkzcRfNU/qnffpIYJAfcRRL9tgRw2+iPxd/lDFjUzFH+3YLv24cUwLMMhhqUKsFWuPXw4BEGLxp7lWslXW7u/F9/oWmTJnD0Lob2dOijCLwKai4BiVZykakPDSk8W16oKcPrQjYOKFK/nXLcidGhDAaER0KcjwFLCkcxJhPIzeDCG0uBVTBSfZRpKKSca64TnI52oH5S9Ho5GpQpAa8lmolxFGeVLSOptjH91m2leX+vPMsiSH4pZvAy63K/MSHeRXiuHIV0mIK/ywDInu88gqYrhBr3K82nK68zlPccxXRBEgUNdLDhtd+mgD8OiUBpz+Iw8S7DzflUeLI+xpx7lnDnHIJpOj8iy+wLJx4BLhYrR8AiSmDO+4hhFPw144UzD/0wmJPvx9PqSRVDHvnmsGhqKtPX32nYEEE0BQ3JzVhE4YXJRekDFllCJy5Ga9IYIqmRVjywokTHIWo4TipBWmOauXTeUAJ9XQr9Xwb/biydp/J6MRXZAslNXLn/7m+mlD5Ueo2izx/AbLKv3yY17yYR/txoCFrUJosl4LoIcTsF+BMT41/dHVGZnUGnuIB9GTTUFnTE3hIR1LhYPk+eL9tB9/ms6fG+bxIc6BwahQpFy8DIswTTIO18IxEQsVoKL/7CYdzh6dLbiPwU53vqByRnC0PRIPgZnsxHdxDjXcSa4h3meOPHj1d9/9pmyZfwtNqRPDmMk4369eiJQxcvoTqd92xOfLCUQW7qvB9eCD+4CP/dn6bjLPNBCwqq8JtMBejA1cVTUIkx4YgMYGVAmMtKHk+NytMSQf6Fpz1TK9+ImRKzHHv1FEYRzf+YjY/XqXlipqS9+m+WU49yiPVwZTlJmmUqBHKsME2jAxthDj/ioB2+qCKb/ccyGi1LXycBmZhJqdRJ0VTKNyZ8H2GAfxaZgOplqiCDqYG0QgvvRUwzPbgynglXTij38CuFJ9oovek5C9nCqi5L8/wN04SNjGZiSUBasXIlPvnkk+x0Kl8cFrW8coO8OUE2pJo+Y/ZsTsgrqoKWjqQP+HN3SigujtaZC7CRdbTFDMGN6NME96zYczx78MRk8oBe+sCo4McK1H0ZTXuRWHWRqPStGyHM7xbeTAjDisJunLyUAItcao7ZqY0+v3SnhZhO/7bo3n3uI+KuHCfZ76MPWadzx9rNW/HwwnlU4qFS1hwj6c779eK92tB6SK+FLdOHVWHhuGpmgyIVatOXS8eTJDi6I3KMee/pIY95BMEtfGJpSpNJDinXVLTe0AyqYIW/sOf7D2Gwcoia58IceBuHDEi30EtR/+QDRNrbd+xAJ+4AW0acHciYnk6cTpjOFtyJ8sEKseD3t8lBsZd/03R4t+3HsU+OKmTOIKISE+JPQFdOK9Hldq/qoWmfCU1nECntFrfP4TD5pWESFMn158hH5XOl+CsAubDWhodE4Xdal/59+qAup/KZUyDluWAy4dGPLmPj1q1YTA2gJBS1wZK1TE9vX0bI8QgL9ONUQA84uXrCqlwdRZQykmKxioqoeeyTSL9zHlfZZbuU/rQuK/HSp2dYEVepEr/ED0dSIcZRk48FhqJt/XqYt3QJ3DlMr0CkW03zNInfvHkTndp/gDtEKt5hoXEWk3UeXJ0NsMrz3Lkje3E4zC36PROaDit3H5R8tyuSo0ljYJIdHxWC2LAgnb97xQ/RPmMKL4mhefzF3zGJLWjNmVj7MS8T06j5Cp1vyWLHkjHCGYD04S6/wUF3MiPt9KlT7NFzQHx8nGJIe9HKmPGe7vJsBzl/77tvJ+MeBd2we3/YunogkRHpw8vncGvnOsRHhMCpCqshTh5MFXjQMC2MuAyFz149ydyU1oAEJntBmXLBNcX1eFARDrPKMpNKcYv+bhL93VDm2BrtLzcsVFvGFzaaxNDZDmNN6WceylSzZAmMJIvsDYNkXXaOBAdnGLUNYpjrzojTiCakJNF22fgStCTEhKnUwIh5nuFxMvmRoyE1Qfd8DRrWVSx0JoiIKxfs8e3zqM/DopaRx3KbILhYB0Xu4ZclhSag+H6a9zGsFUaQo1O9eh1cP34AlWrXw8Z1axAUQqySJ3HJIYyPOaHvc0Z8MkayE4nH/mnG7ACaSpZ1ou6EEt5bZEgg9s+dgGhqoUPlRqqSoNIFUuwzeSaE34Nr6EjTNIhkpjTJT1UBQ+/59eZTJefcQFMY4a7jGeyJZEsvX7FCnaVrONr4eWv1wl4FedGcObN5cNMYOJcsjV6sCfWnBgbJSGI90VWiTonEavE4siLyA82Wa62WcC9Dm01tTIqPYSh/V/kBbfHzKzhD5nJuJlc0Tw3rpiD9Ah7BPvg+1pDtZSY1Nn6IBC4OFOJD7uo5HGK3h6UWr0rV0WHwaFg4OGMZZ8GkMDL+asRXGMRRUtLD0LnTJ7h06Qr27NnDFrDy+JinUQammaL98HFqqLiAz8LnsWRJ6Nr+ndj9w3co835PpNJXSa3RmFqXfvcirjBQm8GO33cZqSeKNVXX+tQaaN2xsdwM0h17grFDKVZJ5Pi2ioT6NJP5Iv7nc5srtU6hkzxd5NMPOyLEygateCGTaDqlxC+bR/yKaJ/0n49l2HyYUacZ0RMrd2+UbNWTUxIi1M3GhgbSJOmYZwXxe9naJQEPE3E5bFeCFO2hSzikQMyTSphL+l8+jj6kLgziBrvFvO0uhSbA9DnyQtL8H6N136Go3fZjmkMZ+GaEgJtXsGxkX5QuX56nZP7CQwyL4xHrgdKH4OPjq6rqH7V+F3GOxdDgo+5qQwjaY0KURjptf/1+FFJNrWHtxdGMxDZlc0qKkHTzDIJDArDJpwi5KUaIlShTWQm9z+e/xWR68v1/Z243OTGNhx3f5Qko/TF9+ozsFCEviuUL25rlxXJc6FAO9/5p9Rp1HtA4jrivy8RWtTDphSdJ8XUmvp2ZI/lmEFvkYhfnhCDpbs2gKYkNDSIDizUvBR/l72EoOEFqBKSWYq0uSVdput6Q6gA1EWpswH2iGndgS3P9WGj5xErtuNhZBAhaDZuEYpVrEZxJ0Y2aog+2YF64f+E0HNu1WR0dM5PUA+3sH4220LhOHdhWqoe32ndSaYk8ZNLh5b1bcGTtSpR9/1OFzarDngS94SZ9cO8SWmYkYQQ1Sa7SsAlVyzflqlm7xxxqhVu0sQAAIABJREFU3Y+E2hxCgrFk7Rq0adMm37PIXjhQQBuIunTJYgzjqH1jclq6cv2H6wMXrXIuGiU4Z7PAcJhz0eR8VY+32sLZk21KXKx4pg6xrJALPplfv6dSAS6+LHTU+SNwr1SXw7vcOJ0oWlW45fE0aadJ4pGjGWRYx9w4q6reRgSzjRnWhzx6iA5jpqFknQZEfXR9DSqk5/uacjPE0mct/LIHSpYpg595AokvtS+RVRUZTO7O9KE2I1G36o1Qv93HjJpTycq25DXEYEXfDijcsJ0SmFgE1RPIhs6s+5dx0e82pngWxgfs8RCt02JsTfMU1Z/W6i4htjGk+99l8PRmzer4YdFiFGXApFm9vLb5C+ewaE7zwYOHGMhG99OsnVV0c8Fk5ntF2dki9lpyO9lN1hTedoa737F12Z03Y1OyCoq++S6nCcURZQllQwgjTgLD+X0oMJoCENMbxUiyFNlaWTRJ0UGk9BlUH7IFKD5FcTs55CAhRpVlHhzeiQadeqFWh67MOWNzZXpLA+elnRuxaw03KInGkydOQEMiS4FBQbjNiLMRz8LzatwBNRo1RXJSAmwcXbDj+28QSuTfsXwdbk5WJxRqxM9nsJJ05y8GP/5YUawoKrOHX9AnjfejaZ3q1adfXk3BTUokwMEh5MNHjsToMWNUO7U0mCrrkgvQYLh+L5zDIk/UtG/ChPGYM206UouXxEhz1qcoQDXdRzSAwpPgIIbfGxHrLEqaujFzvdIdvlS+IIm8yzimC4bmLi8hKgdPEDo9PABR10/Dp1knOJZ8A0E3zrOHTsLyp2McNQHqAhjW2xg0hJ7ezZEc5nhv3Dz2HpANxoBCKICGGisJtQWbMINvXcGqScPZPFkOa3m8wBzOQwnmFHo5bbNB/TdRrj35M7XYJ85IOvT+bfw8sh9Kvd+LbWisPfI6lBmmRmYRx7zLKLM5gfzRTMwlPxSTqYQgwYqsJ/9tSxMbQmx0BBl0N3iseEkWfZf99FN2oCJzyPLzyHNwnHYwvUxmldlj4Sxz+LCyPIdAqxs/JE6FzjqqgVAfRhDm+ZPlGlcGOJ7NOnMsrwOxzjjE0e+lMGnPi32mXbQIz4gRalpUMKJoCn2bdiSbrSyC71wh5EQcMUe/uvKRspmkgBsTike/76LGdUPDngMVA0AHihO2oymVZcxOQ/g3yUfPbVmNo+uXc6THQlIGe6rLSKS/r8y+u8ZsaCn9RjX6XAus7PcRzL3LkhnAWdnaDBrZNLzWrMc3cenBTUzkGUSfcONEifnOkW8qRIVat4UDd0ZzwJB9wBN06NEdP8ybly2vF+V2+dI8tUP1+Yhmg7+UmdIkg2YwEhvOSsPHpA0IK0pr4RXk4gzteB9B29m2bFu9KTzLcigOKwxxEaHc/bEqqc7PQx0qL5rHJD+O8FfR+q1h6+mLkHvkniRzyI4qJT37UKZWRv4/uKK+7Fhrc/ctjwpNWsKrLHlwXLR4TlxQyT21UISYIcVTpg0hNy9i8cgBeLtJI3Vgr4zTCKUvatGsGZoPnYzS1Wth7w9TcfHALhRtxGMIVPQsSJPQGozZS5iIuIfXmONFYhYny1dhHTBCzeDUwWKq6MrNJUVhqab3ZV+CH+mMRTwKYxUDlQo8PEM7QCs/66OsGJtK/lb6yvlibRbydR4V0+PTTzlSOAiWHMO/gaMs3IiIxykiEccR8sJCWEnvxrTBhJGZQ9kaKEKCarrcGHkp8fzKr99TmkcfKf4rnnlikdrNYedRVCe8XDRPrlkX5Jgig6M74u9fYQATg2j2eTsX80WJWg1Rpr5spooKNo7lZtK1fJkoopBo5G+zJ8Lv6l+YOXcOPvigA05wkPfk2QtRr8dAno3H2ZgfNoIPz0k3MpJimP64b2UyOR495BGpGhfRmvSMUfbsk6DQpENWHvYKkhNKhg7UnklzOTchBXas5H/Emukc4sfayc5KKHn4Ok0+eQpP0z7trKDxEyZiFU1LDM9B6ETEZRiJNYKWC1ogdDtpKRjNXXWaTYlFSDbyavoREZAMFW3GEy7KSXV43i5Tfkx2Nv1MwuPbKFy1AexZO9NpnkHHrMEbaKbQiHXEdPa0J5NCmElBphH7jKQ5d2dhuVT12vCt2wxFylVQ2hcbHsq8LwmOHl54fOEPLPlmoMJzlyxdihnff48zD4LR8NP+2PgVx2swYLLwKqmCoqemV98OTa278uQBJhYtgq6MMgO5ob0YUVpQYA8JON+nj5OSWhi1dAe5L2FMDTzp67Zs384ZMN46Qi+JTPnpbci38LQnivDE2Uaz+vxey5YI4mH1CQRPf+TQmFq073H6aX+CdqwkmrGIJqe0myecWZy15vk90awoS23vRRjns5VzXf4mFfgEfyIjDNftSPQJuXf9ucLTrlXwxULUWtHCVAY8qSxNZYowqW0pDFwcfUrDuUhxlGv4NrzKVYY1h5xL2hNJlGbHjPGcJu/POWKnMGb4EGRWqA9jmv1Tv26Fe+1m7JdnH4O+oqGrIOhMewjhORdq73cMVJqQMnKHee9lggSH+f0GvzKYkAsRyZ99IHbULHs2qQgI0JYaPmzoEPYEcvKm1EsL0IWVp+Zpvk+ViWSYJy9wEztYhgxmJEmT48Ai5nYWM2WpxffZ8HnHeNH9eMJyOQcn2L/Zis38RTkoIAhxPE1Zqg05gw31GfrirIbMS3akfAmDnLyEl1u5SSXzvBYJYASdSWMQk860IzUiEClMqhPJFXHgJHkrBxd4V65Bk/o2ilepjXPb12Ht96Px9fAROM9DqQoVK4/HB7fAtERVNZRHLIHKDPTORgKVTNIdrt27jP7sZB1EEGMtB+AdIHISzvsKITfHjBqYRhMZR6z4nUZNYE66xrkLF1Q6Io8+rGxMnjJFVc61YCU/pjNfwtN2tKi0NuFdOljOHvkdkezjbsPgZRo7SWXCkbRt3RAOCA/g9aUPtK/WBO5v1EZiaAD9DEdTURg6os7fHyo9kMOSGKgISq9QDgo7wf9OnmZTZzL1K2rgxXWYIhNzyQEFqI6LoCAJ29GUJrLmlswKqwU3oBWJvnaePkqgjy6eQQrJUdYunG4kvRSuRWFTvKpuvoo+HVGojrAGyKOJvcYzEriRSzP6TuQ13JNdLEeocoJEdEiQqqA3bdgYnbp8oo40kNEhd+/cxdSpU3H86FGFzixZ9iM++ZjTbqXnXfrr8/HIt/Cyi5lMDeTnCEZK9erVQybLRSmk3A3lANVOxBSFyRXBoOULll0iGXkVJmfTq2F7xHF3xkWGKw7LczVPjkljTphAhMKaUaKpnQvNHn1l4EN412kBW/ciCLl/Q0WbT6dEaDirCEiM9lM+qO7+BRPVEFX+QCFmEinJ5HisLCbdyYH3eTQbD+mQRklinla0FnK6WBJLRAIPCrPNpkQVji3mXFGmPMrXUYDpvIZMGfDKxk+Frgi+So1M5DXEBtJUkytahmjNu4S7GnKKe0UeQ+BJ1MXw8YDk2sEExIUF3oXVi+kc4WHPtZRHftKFfAsvN/O5k+cCdOeYfjseRxPHi17pbIvaZFiHUvOEWvc7wdmS7KbxbN6Zg0ejEcNEPVkKlzkSbO295feyMWIJ7KZFBsOxZgt2xSYhlibJp+mHcPAph8CbFyg8hunc5SqY4kIq0i6RHKlopDMdkZ6HLPpKqXdIX56E8bR3Ks8rJEQpiY1F+4URIII08DXp3PnyUF23kmAzqBHBaSiK2ghijtWm0EWcGdRsM4HiWNyNIYu7O5ndHalFJThJw6Nw4Wc0SQdu66bli4ZtYdH3iz59eZKZK8dsrUKtWsRfZYJTPhL1AgnP0HxqyMt08jtlMqCdu4dytvt57pxwO+cR+vk5wI9gtgivCzIZKESHBZDXEpFr0JIdKXKx0khYirtzmWX6BF26QIE4vPEmrMiPib13BWmMIEVbMilYEZxSLTGx4oxkYWQiIRcgi90lidQgqa3rBik/+xC8xZpggpgxWUgxi9nj8bMTeTHdjC6VsEVUMlI5DY9lyB0f5oTwShAKk/RJphaN56nUJUqUyGZ+yXPEFD5gq/IF+rlGDRswyvTOTg2kI2sAoccDNJ8zpk/DgIGDsptqNA18ngUtsPAMG0u0fmmZTP7HsePI4twQW97gfnYVLecwtJn+AahWvBycSL4VaCoqyA/JXHiJArM3guanlKmgT6FZTSZ9ICVIuCWCm0pCbaYKoemayZUokoB3LAMA0RM1VVDOp6WZcmZJyJJmz4WFVHdSFWzZd2fN7h0Xdv2IYDQepNxHOM/1CWERNoIQVRCFEcRI8DGp5vI8eybpkpKI/5VCq2wWpdkUpIPkcmNGq9EhF/86j6lc9EaNG2Hh/IUEtn2z703SgWU8F37e/B/QrUs3jPhqKM/NdX+mKCumWU71nD9/AdqyB33WvLnqNE8p+uYVeRZYeIbmU6NLSBGzcQPSBAnWZnEMYil2dLQm+jKOJ0KWIs/DVRpMHF0RSkJOMqsCsou1ko5WUBXfFMvEOtX/tpr2p2hvIlg+V8YvRhKWU8Ljv0txZ7/JSQkVWCz1Yo5UyteHrc12DDxs2E9HjFHqZ7lwN3PbwbqERHeIUxSnL8XwbD2hIRw98Qea9BgGMwc31V8h/e83V08mF4UaSOFK3U8e0kX8Po9Uk4F2q1gFr0qKuiAq+/bu5SGIgzmcx16dl16JbeI5H1pwsmH9BkwYOxaP6St3bt+BZu+0yNbMAhdjn6emhr/P7hDSk0gjw0JRoVJlxXGUMwri6WPsxckTrvJ6qzWcySwOfXhLMcoM63pamG9NrFAWXIbFGdMUmbLrVJWcKMC97E//oksHjCNAYMfFeJUP7T7kbPRAFmzFfw/98kv8svsg3uk1gpMDacap9dK6dYcDe4SPk86N5cdgI5MbScYcz+V02lFkG/y4eDG6dO+OP8+cwc8cQtSlaxce+luHzZsJOj9GtyJarR2Aofm2K1evYPigIThx5g+2M8/gpMUvsm/xtQhP00Dtuyz8E79HHALQgEEAKWw8TltMm0yzdSdE5lamGsIf3lSUeBVJZVe5dDmeqlCbWcGJybM8MuV8V/osJ28fHPppDtrVrYDZC5YwMNAFKvnVrLwEbSi8AM4/cWSyPIa9gGt37qfm8WhRCieDpCNTavWT80cR8tchal8hnDt3TpllMW1yHF3rNq0xZNBADladlm0WH7OWuJ2adOcuaSB8nhfPzCtbrhzKcGpSmbJls6kO8aRXdO/VC3t44Ej3Ll3xPQUoGvsiqrvyh/nBNvOzAOrNKJTbN2+gTdt2aiSUMxcilTxKj1rN4V6xLnvKHyuAOo00Og1YzomqSBIs1lI0z5S7Xhhbd4/vZTeOE+YTsnLRIxEqjM8nBvii69eEJy3S/o95pIybG+bO4rGh67agattubFCyUYC6+N9wYpdhF4/ziLkM7Gd4X7lyZXUNasgezwMSLVu9epXu8GA+li1dxh7CWM7SdlEHXsh5DY6EFZ1I6i1HIaohBrxXGXLQlXmzRJ6VyF9ZS63Vph+9yO/9Y+E9E8DoQ+4Hd+8oxm8UBViITt+1aiMUpgAlX4vjkTTSNizB9jNmWI+wPM3IdCmACUHf8NsX4GFphJ+Ivvv6+r5wHldeGy3n37NJxowIn1BTRJtWkq85a95CeNdoxL55F7aVhavwPpO5YCQT8iQKejYDjI8/+VhZATGLH3bsqGyJDJgV4ShaRB6bS1EShU5CazJ82FCs/3k914yHJJL81Ji5YV4Msn8sPM1sarx6icbEDzx6+AAffvgRg5T78K5JlIVJdhLB6RiiLApiyiG8p4uqSxq0ZFiGfKeF+SOSud6WrVtQmceS5nVTBRGgofD8afad2fOwhQczzZw1l6hKJRizHil5o0TCGRxuECUUdl5g1+49MIFVd8kdxY/1JcT1B33dJk6pLVOmrOLCnD93HtevX1eTA2V9HDhZUDp/irHXXzahwGGSdkhf/u49v2HOzDk4f/kSftv9Gxo3+peEZyhACXFl8WNoLkaPHI0Na35C5eZt4VqtGSe3P9FpHv3Z84VnIEZZNOnrI5nn8r6t2MsbfJO5VH6T2PwI8RnNo9l0ptbs2bMXkwldWfpUJEXQldGmHA+u475EntvPvvZMzgV7C2vX/5x99t3Y0d/gJzaj/rptC2rUqq00dTv5rocPHUJQaLAa9uNOky+pREkSuapXrw5fRs0JzEPjKdx77JOYwKDn1NmzEMZe9WrVdcXjFyTrr0TztEVSFG696ZS+9mFDhpJStxGVG7WES/W3yUcJZwlGbuRFmvd0yXXdbKSa06yc2bYSO7ZuRvOW7+XJ4c+P0AyvWYHuNJuiefbM4U6cPI1xY75BIc/SsHFjgyOFJ5tN0ppYdv7Es5HUg8HH2b/OqhRB0pNpBCu+nzoNe3/bxfFZtdSJXJbsc8jtIc2lws4WPyjTpgQxekDhDSTSEkaS1DEeMFmSQ4y0WWvPM7+vVHhyoVruJ35gGO34alIGq7/5NpwoPOkvjyFArUo2zzWbzxpQ3YmRNji9YzXmfv8tevfThdGvKuI01LwAap7ki3+du4ixX3+FVJfiPCu9mK4RVHUAsZ1MhMd7M+V8losXL/LarNSdzJ0zF2PGj8NWDnx7i1oZQg6MDHDVSmmqjilUEfpCG75GvsvQOjlnXk5u3rRpM89X/4pnzjfh+fDLld980axNWYNXLrzs6I07eeSobziSYiFq1G8Ox6pNFLAbQ78nyXZuNIbcdqnQFGxJUzi1bRVGDuqrcj1ZhLxuLL/aZxhtSqpgyzrbVfZoDOf0oSQnH7j4lFJDxtUoZOZ1MZd+V30NUnwWanyRIp5qgPja1WsxYtQo/EiaZAeCzH6sd8rxOuLXzHikqMwuET6L5JMJTA0E2FBVDrqZoj4++EbyRAptCqHGQaSbiHDz2qCvXHhabiLfR48dh3mky9d4symca/FsukjWtEiF0MxAzjbmv0WCQjagr7AitfzmwW14p0FtzFu8BHZ65F3tvn+YLjzN81IRyB4FqSg8fPyY0zD6cr62B1yLl80u/krOGnvpKKsPSUoIE76diKaMCotyjP72X3eiU+fOGM/Z0F179kAozWE4YbckCj44OIRFbI4mobmUmS0+DFYE/zRliuAt5vf8BaV1fgzy5BTL5i1a5Csoe+XCM0wdRHhzZs1EjQYtSFDtwDOCbiCe4LQx+SBPUwKtZTl3XRFanRmpe6HX/mC6wEEzm7egMJH6V615IgyB9yTxCiVbYMBnPRFm6kziUmXV6atKUPyKu3WWp6TwWFICCKPGjUGH9u/j112/0VxuUciKBdnkpqTDK81hShFFLYvjV7WqVVGetHpvDkCoVasm56oVhxtzyrvsDBo98hscY5DyITV2IScf2XJz5uf+XovwNDFIsfFbmSjBeZXplo6w5rgnAXqlXKMVNZ+h4elTBEMxZmUx4jKzVkC1MLx+27cXFQnD5WzcyK+Z/Jt2CwSnD1hCCE5L4CIjFHt+2g2PUkxQsmItJums4ymzaYJ48jIzSEeUiFoElMjiclBQsDKR9erUVdGhzDY7x57+SALfdd56E0NoBqtWqaxgMTmvQng+0Ywwt3Bog+Ca8Zw1KiD3empdffpLLRXKy7K8cuGp6QYSI/JmxWSO/GY0KnCCYJxQzQXbs6EQS1ZSYHMWfZ8OYdEeT3/KJtIKnY9Ug0LxYbhwaCf27d6FBo2bvrKgxbDILEFGEsd8mNAyfNq1M+6yRFia/Q0pNJO6khA17/5VpIU+QhYrG+L7mpAaKKe+iBmU47LlvqWCEhnOEWBvv82GkxCFNIl1l3RBfLgk5hLIyERheTgTdRHC07scEqSV2vLjDl658LR0QW7iwvnzyhTEcGCpmwvzJQpLmk+ymCqYOBeGVdGyqn9BDY0zKA2pHacXqeKiyEnKTBvO7lzDwGAVOnT8KJtTmp+bfJFWqoIuH5JUh3GhoyPCOb7RAT27d8P18BROby9HMxnDYi8nWkQEqKKuBB5BrN+VYVVDzo1/HlQndPmjrNPduHFD1fOukhOTTM1zYnmqWvVqrDRUZj7H75UqwpX1UHkYup287u2VC0+7AC1SEsc9/4f5Cq+TC7dmQCA3K6ZFamSm7KSVImshClEEqHRPCqsGwpTEX0Yknt6yEhNGDsNX9BHaySJ5mZa8zKnmWwQZCufxb+EcmufNYmlPnl62j+PxvXl+UpKcb0tNk7RAzKekCqnUIJmJKVweQ86l4eflXHxtozzvmgsiOPUerwKYNrxg7QK032n/lrzv4IEDinTjd++BOptHzIyZnOHDhRAhWhQupmp5RqKddAzq5ql5wjgzZ9Byb99G1KtdHSt+3sCQ3lp9RF67My/hGWpehCrOBqO4jy+68ziYPRSedMeKtskZB9FR0epo8AZNGyvBOVODDAML7b00qFBXec/7kfN1+b2nVy48TfNyXrJhzrKL3JdJnDQRzMZ9OcbagsmsPfsfhP5QyIYEII6DMrGgcOgjFXWPJtPEgpMHb/2BR7eu8ey7m/AiYVXbGPm92ectoyYAqcw/ZCX9jQoV8HHnLnjw4AGmTZ+OcmWItHCzeJN5bcnNtXjlcrRv3z67pPO8DWuoaXmJUBN4Qe7ltQgvN02UG9H8oUau2bx5s2poDGM1Opo0OTMeyuTIuhkraLoaAwMHEztXTlewhKkcPEifc/3KBRw9chi169ZT75dXIpvXohkucCx92yP6JhnY1oGDFKTRZDWr43EMTCToqMhqeAwRkaWsOnz0sa6ikB+WV17X8LJ/f+3CMzSfyszxS5jXElVp/ERx6tNphkIYBIQy7I4VQRLPtKRZlRmZEuCoI89Y27tH/PGHH35AL5q1l9mtuS2UJoQYhu8PmXeJ8Dp//Akn7EZzyvoy9dmSe41h3rqOPePT2VvQh0l8XnNSXlYo+X3dvya8nEKUf4sAhRui/B4fAimJNgrVXMg7yRRiOgejKLBbKtpEKJ7wOV+QGzKe5RhDelxBzE1uJl1eL8NXH1LzKnIey6AvBuI2+8SXciaKlLjkGo5z0q6cptySdP9t27a90upGfgVm+Lx/XXg5AxkN39OOe9H+LnOun5AWF0VybxppFRLpyYySW8Qdq7CcsoPDRIUllh8kIq+FyQ6qiIQ8op8rx5EeI0eOwvkLF7Fk8SJ+tqVK3oMYiTZp0lRpYRDJQgKXqXPX/yFEl9f1Pe/v/zPh5RSipokaupAb6XQqz1JdvmQZImKicI2kHS9CTdrjnyygofD8KLxSpUtxAOtMHDr8OxbMn6dOqIyL03XW1qhZE2asKJwlFOZdtNg/9rkvKzjlgl51qvCyF2MYsWmBjQomBHnX1whluM17Ld7BI6L/69aswQcEAOTxT7VP++x4Ih5+pEIU9/Xh8LZVKjddxHPspGQjA4WEFNSu3fuk/flh2YrlaM053HmNmHrZ9cjP6/4zwnvRxSrTyqBBeCGtW7XCqRMn0fOzXjymdGY2i+yfap58fjILq1KQdSfwvZk44w/z5tNsLiSIXJLH2kSpiPMLMpqPHjiMnn0+wxTmrFrfYn4W+1U/5/+E8OSmxecIV2QUpyasZ4G3sJcnThP8NZzR9bKLk42ycIMIg8yR9bkDB4/ws0aR8bwY5cqXU+WdwuSffM+hCiuX/oh2H36AlSQbFaSr52Wv7z/r8/JzQ5oZFRRfmMg9e/ZELDky10ju8WEhM2eSnJ/3NHyOZp4FERHMUgbt3GBg1Ld3X6xY8SOaNm9GsrCc226kegl2kpvSlKzm9Rs2/H/Ny89ii3boeI5ZatBNNJPlBTw44lMylF9F0KJpXxghsgTObJFI9+NOXfBpt640m6V4tM0hXOAk+XQOyROS7CfdumAW8z2t4TQ/9/Cqn/N/xmyK0DT/0psJ+i5WrmvWro2dJPz8k4AlJ4QVwXQgnvmepAX9eWbukycclkMKvExEEgJtMnHW4oxy//jzNJtYdGc7vCr2dkGF+39GeHJjWhqxnQnyZ+wLzKAZlXHKGkO5IIhLzuhWg9mk0SSK4z5SWXPr0pUFWU7CTSG3sjipC/XrN0TDRg1Uki7Mr39qrgsqrJzP/z8jPE1DpPoWFxWJ4uQ+ColnB6cptOApm4bVZ8ObzCnQnEKT52qRqvwtkSZRKuqFiKp81ptEWqI90zgVQo5DM6Se/68Fp677v5Ln5XcXaiay4/9r79xZGoiCKHwF8RW1UQw2iRobbd1Kbf0dYhEbQSwstLG2s7CxlcTG14+QWFvbiG9FSEgREAOC39lklhhWCUnALHhhybJkF+7Ozp25M+fMAC+/gBMvsM5hNhMa5TAb+SPuUTSyKoJLNbWLRHNk73Rtmo366kraHZ0e+1nuZTRdwz4ixWiN+t7KNqXReYf9L1LCq7VPl7mcW4LcEacMx9rGultcmHcTUymfzKFQWiO0YHshQizLCZHtkl1Vt+oBIIACBp2cnwFh3CZctvVtT/mveU18dkE0BKdCsPFhWK9Pr2os0+W8Oc/NUCtMaOZJ+AAJwleDCEFHjEO2UZUoBOQtA8kQ8EeYlXdSP8KTFEi2yst85rjCsyzmC7TUvnVpsuq7sF+FwWzFOWpiur/eEinNs5mYAHcocbi/R1U/EqWV7pKffhXbD36rXdJ9NHMKZ0NRkyGK+SiDIZhfCaH5nArwNaI0v7Fk2tA9veQSVTdsZDzuspms8zyvbbiZdgkxcsILlk7sUh4g6wEg3BtycHePD64kYCsIrRc0UaEuaZlKcagrmfU0CLUdXOwh6Bwj4DxGIbc+cJfdNKpI0FdhEzCsqMqBrfujDELkbV7tBOptjqrTXlOY5p5lThyCPEQXhdQEeiqrXoq8MwTpe5/Cx0hgaKG0r5+lV57kKDyFWbLlccCwSSo8JIneaNQGnzvB1tl7iJzmmcdnfAU5GDq3vV67liQ9R8KXE2M0q04SnP8xRm2rUG/3gv1flV5mcVB/cghVS6dggmFDWE2pniDiHv0RAAAAFElEQVT19hzDYFburSRaO01oNpcvhfDdYQRhsN8AAAAASUVORK5CYII=;" vertex="1" parent="WIyWlLk6GJQsqaUBKTNV-1">
          <mxGeometry x="-37.089999999999975" y="270" width="32.18" height="40" as="geometry" />
        </mxCell>
        <mxCell id="JyJ8WFpUNzoB7Qr8mawW-102" value="configure the repo manually" style="edgeStyle=orthogonalEdgeStyle;rounded=0;orthogonalLoop=1;jettySize=auto;html=1;entryX=0.5;entryY=0;entryDx=0;entryDy=0;exitX=0.5;exitY=1;exitDx=0;exitDy=0;" edge="1" parent="WIyWlLk6GJQsqaUBKTNV-1" source="JyJ8WFpUNzoB7Qr8mawW-88" target="JyJ8WFpUNzoB7Qr8mawW-96">
          <mxGeometry relative="1" as="geometry">
            <mxPoint x="60" y="200" as="sourcePoint" />
            <mxPoint x="75" y="30" as="targetPoint" />
          </mxGeometry>
        </mxCell>
        <mxCell id="JyJ8WFpUNzoB7Qr8mawW-103" value="" style="group" vertex="1" connectable="0" parent="WIyWlLk6GJQsqaUBKTNV-1">
          <mxGeometry x="309" y="270" width="210" height="40" as="geometry" />
        </mxCell>
        <mxCell id="JyJ8WFpUNzoB7Qr8mawW-104" value="aws ECR" style="rounded=0;whiteSpace=wrap;html=1;fontSize=12;align=right;" vertex="1" parent="JyJ8WFpUNzoB7Qr8mawW-103">
          <mxGeometry width="210" height="40" as="geometry" />
        </mxCell>
        <mxCell id="JyJ8WFpUNzoB7Qr8mawW-105" value="Build docker image" style="edgeStyle=orthogonalEdgeStyle;rounded=0;orthogonalLoop=1;jettySize=auto;html=1;exitX=1;exitY=0.5;exitDx=0;exitDy=0;fontSize=12;" edge="1" parent="WIyWlLk6GJQsqaUBKTNV-1" source="JyJ8WFpUNzoB7Qr8mawW-96">
          <mxGeometry relative="1" as="geometry">
            <mxPoint x="180" y="52" as="sourcePoint" />
            <mxPoint x="310" y="290" as="targetPoint" />
          </mxGeometry>
        </mxCell>
        <mxCell id="JyJ8WFpUNzoB7Qr8mawW-106" value="configure jenkinsmanually" style="endArrow=classic;html=1;fontSize=12;entryX=0;entryY=0.5;entryDx=0;entryDy=0;exitX=0.5;exitY=0.5;exitDx=0;exitDy=0;exitPerimeter=0;" edge="1" parent="WIyWlLk6GJQsqaUBKTNV-1" source="JyJ8WFpUNzoB7Qr8mawW-93" target="JyJ8WFpUNzoB7Qr8mawW-96">
          <mxGeometry width="50" height="50" relative="1" as="geometry">
            <mxPoint x="-231" y="180" as="sourcePoint" />
            <mxPoint x="-30" y="180" as="targetPoint" />
          </mxGeometry>
        </mxCell>
        <mxCell id="JyJ8WFpUNzoB7Qr8mawW-107" value="Developers" style="shape=umlActor;verticalLabelPosition=bottom;verticalAlign=top;html=1;outlineConnect=0;fontSize=12;" vertex="1" parent="WIyWlLk6GJQsqaUBKTNV-1">
          <mxGeometry x="-256" y="370" width="30" height="60" as="geometry" />
        </mxCell>
        <mxCell id="JyJ8WFpUNzoB7Qr8mawW-108" value="" style="group" vertex="1" connectable="0" parent="WIyWlLk6GJQsqaUBKTNV-1">
          <mxGeometry x="309" y="380" width="210" height="40" as="geometry" />
        </mxCell>
        <mxCell id="JyJ8WFpUNzoB7Qr8mawW-109" value="ecms-kubernates cluster" style="rounded=0;whiteSpace=wrap;html=1;fontSize=12;align=right;" vertex="1" parent="JyJ8WFpUNzoB7Qr8mawW-108">
          <mxGeometry width="210" height="40" as="geometry" />
        </mxCell>
        <mxCell id="JyJ8WFpUNzoB7Qr8mawW-111" value="" style="sketch=0;aspect=fixed;html=1;points=[];align=center;image;fontSize=12;image=img/lib/mscae/Kubernetes.svg;" vertex="1" parent="JyJ8WFpUNzoB7Qr8mawW-108">
          <mxGeometry width="41.67" height="40" as="geometry" />
        </mxCell>
        <mxCell id="JyJ8WFpUNzoB7Qr8mawW-110" value="restart the pods via CLI" style="endArrow=classic;html=1;fontSize=12;entryX=0;entryY=0.5;entryDx=0;entryDy=0;exitX=0.5;exitY=0.5;exitDx=0;exitDy=0;exitPerimeter=0;" edge="1" parent="WIyWlLk6GJQsqaUBKTNV-1" source="JyJ8WFpUNzoB7Qr8mawW-107" target="JyJ8WFpUNzoB7Qr8mawW-109">
          <mxGeometry width="50" height="50" relative="1" as="geometry">
            <mxPoint x="-232" y="300" as="sourcePoint" />
            <mxPoint x="-30" y="300" as="targetPoint" />
          </mxGeometry>
        </mxCell>
        <mxCell id="JyJ8WFpUNzoB7Qr8mawW-112" value="pull the latest images" style="edgeStyle=orthogonalEdgeStyle;rounded=0;orthogonalLoop=1;jettySize=auto;html=1;entryX=0.5;entryY=0;entryDx=0;entryDy=0;exitX=0.5;exitY=1;exitDx=0;exitDy=0;" edge="1" parent="WIyWlLk6GJQsqaUBKTNV-1" source="JyJ8WFpUNzoB7Qr8mawW-104" target="JyJ8WFpUNzoB7Qr8mawW-109">
          <mxGeometry relative="1" as="geometry">
            <mxPoint x="75" y="200" as="sourcePoint" />
            <mxPoint x="75" y="280" as="targetPoint" />
          </mxGeometry>
        </mxCell>
        <mxCell id="JyJ8WFpUNzoB7Qr8mawW-113" value="GreenPro (ecms)Service" style="text;html=1;strokeColor=none;fillColor=none;align=center;verticalAlign=middle;whiteSpace=wrap;rounded=0;fontStyle=1;fontSize=16;" vertex="1" parent="WIyWlLk6GJQsqaUBKTNV-1">
          <mxGeometry x="-297.09" y="90" width="260" height="30" as="geometry" />
        </mxCell>
      </root>
    </mxGraphModel>
  </diagram>
</mxfile>
